G75*
G70*
%OFA0B0*%
%FSLAX24Y24*%
%IPPOS*%
%LPD*%
%AMOC8*
5,1,8,0,0,1.08239X$1,22.5*
%
%ADD10C,0.0000*%
D10*
X000504Y000161D02*
X000504Y039161D01*
X039504Y039161D01*
X039504Y000161D01*
X000504Y000161D01*
X002379Y002661D02*
X002381Y002711D01*
X002387Y002760D01*
X002397Y002809D01*
X002410Y002856D01*
X002428Y002903D01*
X002449Y002948D01*
X002473Y002991D01*
X002501Y003032D01*
X002532Y003071D01*
X002566Y003107D01*
X002603Y003141D01*
X002643Y003171D01*
X002684Y003198D01*
X002728Y003222D01*
X002773Y003242D01*
X002820Y003258D01*
X002868Y003271D01*
X002917Y003280D01*
X002967Y003285D01*
X003016Y003286D01*
X003066Y003283D01*
X003115Y003276D01*
X003164Y003265D01*
X003211Y003251D01*
X003257Y003232D01*
X003302Y003210D01*
X003345Y003185D01*
X003385Y003156D01*
X003423Y003124D01*
X003459Y003090D01*
X003492Y003052D01*
X003521Y003012D01*
X003547Y002970D01*
X003570Y002926D01*
X003589Y002880D01*
X003605Y002833D01*
X003617Y002784D01*
X003625Y002735D01*
X003629Y002686D01*
X003629Y002636D01*
X003625Y002587D01*
X003617Y002538D01*
X003605Y002489D01*
X003589Y002442D01*
X003570Y002396D01*
X003547Y002352D01*
X003521Y002310D01*
X003492Y002270D01*
X003459Y002232D01*
X003423Y002198D01*
X003385Y002166D01*
X003345Y002137D01*
X003302Y002112D01*
X003257Y002090D01*
X003211Y002071D01*
X003164Y002057D01*
X003115Y002046D01*
X003066Y002039D01*
X003016Y002036D01*
X002967Y002037D01*
X002917Y002042D01*
X002868Y002051D01*
X002820Y002064D01*
X002773Y002080D01*
X002728Y002100D01*
X002684Y002124D01*
X002643Y002151D01*
X002603Y002181D01*
X002566Y002215D01*
X002532Y002251D01*
X002501Y002290D01*
X002473Y002331D01*
X002449Y002374D01*
X002428Y002419D01*
X002410Y002466D01*
X002397Y002513D01*
X002387Y002562D01*
X002381Y002611D01*
X002379Y002661D01*
X004406Y006911D02*
X004408Y006930D01*
X004413Y006949D01*
X004423Y006965D01*
X004435Y006980D01*
X004450Y006992D01*
X004466Y007002D01*
X004485Y007007D01*
X004504Y007009D01*
X004523Y007007D01*
X004542Y007002D01*
X004558Y006992D01*
X004573Y006980D01*
X004585Y006965D01*
X004595Y006949D01*
X004600Y006930D01*
X004602Y006911D01*
X004600Y006892D01*
X004595Y006873D01*
X004585Y006857D01*
X004573Y006842D01*
X004558Y006830D01*
X004542Y006820D01*
X004523Y006815D01*
X004504Y006813D01*
X004485Y006815D01*
X004466Y006820D01*
X004450Y006830D01*
X004435Y006842D01*
X004423Y006857D01*
X004413Y006873D01*
X004408Y006892D01*
X004406Y006911D01*
X003531Y007286D02*
X003533Y007305D01*
X003538Y007324D01*
X003548Y007340D01*
X003560Y007355D01*
X003575Y007367D01*
X003591Y007377D01*
X003610Y007382D01*
X003629Y007384D01*
X003648Y007382D01*
X003667Y007377D01*
X003683Y007367D01*
X003698Y007355D01*
X003710Y007340D01*
X003720Y007324D01*
X003725Y007305D01*
X003727Y007286D01*
X003725Y007267D01*
X003720Y007248D01*
X003710Y007232D01*
X003698Y007217D01*
X003683Y007205D01*
X003667Y007195D01*
X003648Y007190D01*
X003629Y007188D01*
X003610Y007190D01*
X003591Y007195D01*
X003575Y007205D01*
X003560Y007217D01*
X003548Y007232D01*
X003538Y007248D01*
X003533Y007267D01*
X003531Y007286D01*
X003156Y008161D02*
X003158Y008180D01*
X003163Y008199D01*
X003173Y008215D01*
X003185Y008230D01*
X003200Y008242D01*
X003216Y008252D01*
X003235Y008257D01*
X003254Y008259D01*
X003273Y008257D01*
X003292Y008252D01*
X003308Y008242D01*
X003323Y008230D01*
X003335Y008215D01*
X003345Y008199D01*
X003350Y008180D01*
X003352Y008161D01*
X003350Y008142D01*
X003345Y008123D01*
X003335Y008107D01*
X003323Y008092D01*
X003308Y008080D01*
X003292Y008070D01*
X003273Y008065D01*
X003254Y008063D01*
X003235Y008065D01*
X003216Y008070D01*
X003200Y008080D01*
X003185Y008092D01*
X003173Y008107D01*
X003163Y008123D01*
X003158Y008142D01*
X003156Y008161D01*
X003531Y009036D02*
X003533Y009055D01*
X003538Y009074D01*
X003548Y009090D01*
X003560Y009105D01*
X003575Y009117D01*
X003591Y009127D01*
X003610Y009132D01*
X003629Y009134D01*
X003648Y009132D01*
X003667Y009127D01*
X003683Y009117D01*
X003698Y009105D01*
X003710Y009090D01*
X003720Y009074D01*
X003725Y009055D01*
X003727Y009036D01*
X003725Y009017D01*
X003720Y008998D01*
X003710Y008982D01*
X003698Y008967D01*
X003683Y008955D01*
X003667Y008945D01*
X003648Y008940D01*
X003629Y008938D01*
X003610Y008940D01*
X003591Y008945D01*
X003575Y008955D01*
X003560Y008967D01*
X003548Y008982D01*
X003538Y008998D01*
X003533Y009017D01*
X003531Y009036D01*
X004406Y009411D02*
X004408Y009430D01*
X004413Y009449D01*
X004423Y009465D01*
X004435Y009480D01*
X004450Y009492D01*
X004466Y009502D01*
X004485Y009507D01*
X004504Y009509D01*
X004523Y009507D01*
X004542Y009502D01*
X004558Y009492D01*
X004573Y009480D01*
X004585Y009465D01*
X004595Y009449D01*
X004600Y009430D01*
X004602Y009411D01*
X004600Y009392D01*
X004595Y009373D01*
X004585Y009357D01*
X004573Y009342D01*
X004558Y009330D01*
X004542Y009320D01*
X004523Y009315D01*
X004504Y009313D01*
X004485Y009315D01*
X004466Y009320D01*
X004450Y009330D01*
X004435Y009342D01*
X004423Y009357D01*
X004413Y009373D01*
X004408Y009392D01*
X004406Y009411D01*
X005281Y009036D02*
X005283Y009055D01*
X005288Y009074D01*
X005298Y009090D01*
X005310Y009105D01*
X005325Y009117D01*
X005341Y009127D01*
X005360Y009132D01*
X005379Y009134D01*
X005398Y009132D01*
X005417Y009127D01*
X005433Y009117D01*
X005448Y009105D01*
X005460Y009090D01*
X005470Y009074D01*
X005475Y009055D01*
X005477Y009036D01*
X005475Y009017D01*
X005470Y008998D01*
X005460Y008982D01*
X005448Y008967D01*
X005433Y008955D01*
X005417Y008945D01*
X005398Y008940D01*
X005379Y008938D01*
X005360Y008940D01*
X005341Y008945D01*
X005325Y008955D01*
X005310Y008967D01*
X005298Y008982D01*
X005288Y008998D01*
X005283Y009017D01*
X005281Y009036D01*
X005656Y008161D02*
X005658Y008180D01*
X005663Y008199D01*
X005673Y008215D01*
X005685Y008230D01*
X005700Y008242D01*
X005716Y008252D01*
X005735Y008257D01*
X005754Y008259D01*
X005773Y008257D01*
X005792Y008252D01*
X005808Y008242D01*
X005823Y008230D01*
X005835Y008215D01*
X005845Y008199D01*
X005850Y008180D01*
X005852Y008161D01*
X005850Y008142D01*
X005845Y008123D01*
X005835Y008107D01*
X005823Y008092D01*
X005808Y008080D01*
X005792Y008070D01*
X005773Y008065D01*
X005754Y008063D01*
X005735Y008065D01*
X005716Y008070D01*
X005700Y008080D01*
X005685Y008092D01*
X005673Y008107D01*
X005663Y008123D01*
X005658Y008142D01*
X005656Y008161D01*
X005281Y007286D02*
X005283Y007305D01*
X005288Y007324D01*
X005298Y007340D01*
X005310Y007355D01*
X005325Y007367D01*
X005341Y007377D01*
X005360Y007382D01*
X005379Y007384D01*
X005398Y007382D01*
X005417Y007377D01*
X005433Y007367D01*
X005448Y007355D01*
X005460Y007340D01*
X005470Y007324D01*
X005475Y007305D01*
X005477Y007286D01*
X005475Y007267D01*
X005470Y007248D01*
X005460Y007232D01*
X005448Y007217D01*
X005433Y007205D01*
X005417Y007195D01*
X005398Y007190D01*
X005379Y007188D01*
X005360Y007190D01*
X005341Y007195D01*
X005325Y007205D01*
X005310Y007217D01*
X005298Y007232D01*
X005288Y007248D01*
X005283Y007267D01*
X005281Y007286D01*
X007156Y003161D02*
X007158Y003180D01*
X007163Y003199D01*
X007173Y003215D01*
X007185Y003230D01*
X007200Y003242D01*
X007216Y003252D01*
X007235Y003257D01*
X007254Y003259D01*
X007273Y003257D01*
X007292Y003252D01*
X007308Y003242D01*
X007323Y003230D01*
X007335Y003215D01*
X007345Y003199D01*
X007350Y003180D01*
X007352Y003161D01*
X007350Y003142D01*
X007345Y003123D01*
X007335Y003107D01*
X007323Y003092D01*
X007308Y003080D01*
X007292Y003070D01*
X007273Y003065D01*
X007254Y003063D01*
X007235Y003065D01*
X007216Y003070D01*
X007200Y003080D01*
X007185Y003092D01*
X007173Y003107D01*
X007163Y003123D01*
X007158Y003142D01*
X007156Y003161D01*
X007656Y003161D02*
X007658Y003180D01*
X007663Y003199D01*
X007673Y003215D01*
X007685Y003230D01*
X007700Y003242D01*
X007716Y003252D01*
X007735Y003257D01*
X007754Y003259D01*
X007773Y003257D01*
X007792Y003252D01*
X007808Y003242D01*
X007823Y003230D01*
X007835Y003215D01*
X007845Y003199D01*
X007850Y003180D01*
X007852Y003161D01*
X007850Y003142D01*
X007845Y003123D01*
X007835Y003107D01*
X007823Y003092D01*
X007808Y003080D01*
X007792Y003070D01*
X007773Y003065D01*
X007754Y003063D01*
X007735Y003065D01*
X007716Y003070D01*
X007700Y003080D01*
X007685Y003092D01*
X007673Y003107D01*
X007663Y003123D01*
X007658Y003142D01*
X007656Y003161D01*
X008156Y003161D02*
X008158Y003180D01*
X008163Y003199D01*
X008173Y003215D01*
X008185Y003230D01*
X008200Y003242D01*
X008216Y003252D01*
X008235Y003257D01*
X008254Y003259D01*
X008273Y003257D01*
X008292Y003252D01*
X008308Y003242D01*
X008323Y003230D01*
X008335Y003215D01*
X008345Y003199D01*
X008350Y003180D01*
X008352Y003161D01*
X008350Y003142D01*
X008345Y003123D01*
X008335Y003107D01*
X008323Y003092D01*
X008308Y003080D01*
X008292Y003070D01*
X008273Y003065D01*
X008254Y003063D01*
X008235Y003065D01*
X008216Y003070D01*
X008200Y003080D01*
X008185Y003092D01*
X008173Y003107D01*
X008163Y003123D01*
X008158Y003142D01*
X008156Y003161D01*
X008656Y001911D02*
X008658Y001930D01*
X008663Y001949D01*
X008673Y001965D01*
X008685Y001980D01*
X008700Y001992D01*
X008716Y002002D01*
X008735Y002007D01*
X008754Y002009D01*
X008773Y002007D01*
X008792Y002002D01*
X008808Y001992D01*
X008823Y001980D01*
X008835Y001965D01*
X008845Y001949D01*
X008850Y001930D01*
X008852Y001911D01*
X008850Y001892D01*
X008845Y001873D01*
X008835Y001857D01*
X008823Y001842D01*
X008808Y001830D01*
X008792Y001820D01*
X008773Y001815D01*
X008754Y001813D01*
X008735Y001815D01*
X008716Y001820D01*
X008700Y001830D01*
X008685Y001842D01*
X008673Y001857D01*
X008663Y001873D01*
X008658Y001892D01*
X008656Y001911D01*
X008156Y000661D02*
X008158Y000680D01*
X008163Y000699D01*
X008173Y000715D01*
X008185Y000730D01*
X008200Y000742D01*
X008216Y000752D01*
X008235Y000757D01*
X008254Y000759D01*
X008273Y000757D01*
X008292Y000752D01*
X008308Y000742D01*
X008323Y000730D01*
X008335Y000715D01*
X008345Y000699D01*
X008350Y000680D01*
X008352Y000661D01*
X008350Y000642D01*
X008345Y000623D01*
X008335Y000607D01*
X008323Y000592D01*
X008308Y000580D01*
X008292Y000570D01*
X008273Y000565D01*
X008254Y000563D01*
X008235Y000565D01*
X008216Y000570D01*
X008200Y000580D01*
X008185Y000592D01*
X008173Y000607D01*
X008163Y000623D01*
X008158Y000642D01*
X008156Y000661D01*
X007656Y000661D02*
X007658Y000680D01*
X007663Y000699D01*
X007673Y000715D01*
X007685Y000730D01*
X007700Y000742D01*
X007716Y000752D01*
X007735Y000757D01*
X007754Y000759D01*
X007773Y000757D01*
X007792Y000752D01*
X007808Y000742D01*
X007823Y000730D01*
X007835Y000715D01*
X007845Y000699D01*
X007850Y000680D01*
X007852Y000661D01*
X007850Y000642D01*
X007845Y000623D01*
X007835Y000607D01*
X007823Y000592D01*
X007808Y000580D01*
X007792Y000570D01*
X007773Y000565D01*
X007754Y000563D01*
X007735Y000565D01*
X007716Y000570D01*
X007700Y000580D01*
X007685Y000592D01*
X007673Y000607D01*
X007663Y000623D01*
X007658Y000642D01*
X007656Y000661D01*
X007156Y000661D02*
X007158Y000680D01*
X007163Y000699D01*
X007173Y000715D01*
X007185Y000730D01*
X007200Y000742D01*
X007216Y000752D01*
X007235Y000757D01*
X007254Y000759D01*
X007273Y000757D01*
X007292Y000752D01*
X007308Y000742D01*
X007323Y000730D01*
X007335Y000715D01*
X007345Y000699D01*
X007350Y000680D01*
X007352Y000661D01*
X007350Y000642D01*
X007345Y000623D01*
X007335Y000607D01*
X007323Y000592D01*
X007308Y000580D01*
X007292Y000570D01*
X007273Y000565D01*
X007254Y000563D01*
X007235Y000565D01*
X007216Y000570D01*
X007200Y000580D01*
X007185Y000592D01*
X007173Y000607D01*
X007163Y000623D01*
X007158Y000642D01*
X007156Y000661D01*
X006656Y001911D02*
X006658Y001930D01*
X006663Y001949D01*
X006673Y001965D01*
X006685Y001980D01*
X006700Y001992D01*
X006716Y002002D01*
X006735Y002007D01*
X006754Y002009D01*
X006773Y002007D01*
X006792Y002002D01*
X006808Y001992D01*
X006823Y001980D01*
X006835Y001965D01*
X006845Y001949D01*
X006850Y001930D01*
X006852Y001911D01*
X006850Y001892D01*
X006845Y001873D01*
X006835Y001857D01*
X006823Y001842D01*
X006808Y001830D01*
X006792Y001820D01*
X006773Y001815D01*
X006754Y001813D01*
X006735Y001815D01*
X006716Y001820D01*
X006700Y001830D01*
X006685Y001842D01*
X006673Y001857D01*
X006663Y001873D01*
X006658Y001892D01*
X006656Y001911D01*
X010156Y001911D02*
X010158Y001930D01*
X010163Y001949D01*
X010173Y001965D01*
X010185Y001980D01*
X010200Y001992D01*
X010216Y002002D01*
X010235Y002007D01*
X010254Y002009D01*
X010273Y002007D01*
X010292Y002002D01*
X010308Y001992D01*
X010323Y001980D01*
X010335Y001965D01*
X010345Y001949D01*
X010350Y001930D01*
X010352Y001911D01*
X010350Y001892D01*
X010345Y001873D01*
X010335Y001857D01*
X010323Y001842D01*
X010308Y001830D01*
X010292Y001820D01*
X010273Y001815D01*
X010254Y001813D01*
X010235Y001815D01*
X010216Y001820D01*
X010200Y001830D01*
X010185Y001842D01*
X010173Y001857D01*
X010163Y001873D01*
X010158Y001892D01*
X010156Y001911D01*
X010656Y000661D02*
X010658Y000680D01*
X010663Y000699D01*
X010673Y000715D01*
X010685Y000730D01*
X010700Y000742D01*
X010716Y000752D01*
X010735Y000757D01*
X010754Y000759D01*
X010773Y000757D01*
X010792Y000752D01*
X010808Y000742D01*
X010823Y000730D01*
X010835Y000715D01*
X010845Y000699D01*
X010850Y000680D01*
X010852Y000661D01*
X010850Y000642D01*
X010845Y000623D01*
X010835Y000607D01*
X010823Y000592D01*
X010808Y000580D01*
X010792Y000570D01*
X010773Y000565D01*
X010754Y000563D01*
X010735Y000565D01*
X010716Y000570D01*
X010700Y000580D01*
X010685Y000592D01*
X010673Y000607D01*
X010663Y000623D01*
X010658Y000642D01*
X010656Y000661D01*
X011156Y000661D02*
X011158Y000680D01*
X011163Y000699D01*
X011173Y000715D01*
X011185Y000730D01*
X011200Y000742D01*
X011216Y000752D01*
X011235Y000757D01*
X011254Y000759D01*
X011273Y000757D01*
X011292Y000752D01*
X011308Y000742D01*
X011323Y000730D01*
X011335Y000715D01*
X011345Y000699D01*
X011350Y000680D01*
X011352Y000661D01*
X011350Y000642D01*
X011345Y000623D01*
X011335Y000607D01*
X011323Y000592D01*
X011308Y000580D01*
X011292Y000570D01*
X011273Y000565D01*
X011254Y000563D01*
X011235Y000565D01*
X011216Y000570D01*
X011200Y000580D01*
X011185Y000592D01*
X011173Y000607D01*
X011163Y000623D01*
X011158Y000642D01*
X011156Y000661D01*
X011656Y000661D02*
X011658Y000680D01*
X011663Y000699D01*
X011673Y000715D01*
X011685Y000730D01*
X011700Y000742D01*
X011716Y000752D01*
X011735Y000757D01*
X011754Y000759D01*
X011773Y000757D01*
X011792Y000752D01*
X011808Y000742D01*
X011823Y000730D01*
X011835Y000715D01*
X011845Y000699D01*
X011850Y000680D01*
X011852Y000661D01*
X011850Y000642D01*
X011845Y000623D01*
X011835Y000607D01*
X011823Y000592D01*
X011808Y000580D01*
X011792Y000570D01*
X011773Y000565D01*
X011754Y000563D01*
X011735Y000565D01*
X011716Y000570D01*
X011700Y000580D01*
X011685Y000592D01*
X011673Y000607D01*
X011663Y000623D01*
X011658Y000642D01*
X011656Y000661D01*
X012156Y001911D02*
X012158Y001930D01*
X012163Y001949D01*
X012173Y001965D01*
X012185Y001980D01*
X012200Y001992D01*
X012216Y002002D01*
X012235Y002007D01*
X012254Y002009D01*
X012273Y002007D01*
X012292Y002002D01*
X012308Y001992D01*
X012323Y001980D01*
X012335Y001965D01*
X012345Y001949D01*
X012350Y001930D01*
X012352Y001911D01*
X012350Y001892D01*
X012345Y001873D01*
X012335Y001857D01*
X012323Y001842D01*
X012308Y001830D01*
X012292Y001820D01*
X012273Y001815D01*
X012254Y001813D01*
X012235Y001815D01*
X012216Y001820D01*
X012200Y001830D01*
X012185Y001842D01*
X012173Y001857D01*
X012163Y001873D01*
X012158Y001892D01*
X012156Y001911D01*
X011656Y003161D02*
X011658Y003180D01*
X011663Y003199D01*
X011673Y003215D01*
X011685Y003230D01*
X011700Y003242D01*
X011716Y003252D01*
X011735Y003257D01*
X011754Y003259D01*
X011773Y003257D01*
X011792Y003252D01*
X011808Y003242D01*
X011823Y003230D01*
X011835Y003215D01*
X011845Y003199D01*
X011850Y003180D01*
X011852Y003161D01*
X011850Y003142D01*
X011845Y003123D01*
X011835Y003107D01*
X011823Y003092D01*
X011808Y003080D01*
X011792Y003070D01*
X011773Y003065D01*
X011754Y003063D01*
X011735Y003065D01*
X011716Y003070D01*
X011700Y003080D01*
X011685Y003092D01*
X011673Y003107D01*
X011663Y003123D01*
X011658Y003142D01*
X011656Y003161D01*
X011156Y003161D02*
X011158Y003180D01*
X011163Y003199D01*
X011173Y003215D01*
X011185Y003230D01*
X011200Y003242D01*
X011216Y003252D01*
X011235Y003257D01*
X011254Y003259D01*
X011273Y003257D01*
X011292Y003252D01*
X011308Y003242D01*
X011323Y003230D01*
X011335Y003215D01*
X011345Y003199D01*
X011350Y003180D01*
X011352Y003161D01*
X011350Y003142D01*
X011345Y003123D01*
X011335Y003107D01*
X011323Y003092D01*
X011308Y003080D01*
X011292Y003070D01*
X011273Y003065D01*
X011254Y003063D01*
X011235Y003065D01*
X011216Y003070D01*
X011200Y003080D01*
X011185Y003092D01*
X011173Y003107D01*
X011163Y003123D01*
X011158Y003142D01*
X011156Y003161D01*
X010656Y003161D02*
X010658Y003180D01*
X010663Y003199D01*
X010673Y003215D01*
X010685Y003230D01*
X010700Y003242D01*
X010716Y003252D01*
X010735Y003257D01*
X010754Y003259D01*
X010773Y003257D01*
X010792Y003252D01*
X010808Y003242D01*
X010823Y003230D01*
X010835Y003215D01*
X010845Y003199D01*
X010850Y003180D01*
X010852Y003161D01*
X010850Y003142D01*
X010845Y003123D01*
X010835Y003107D01*
X010823Y003092D01*
X010808Y003080D01*
X010792Y003070D01*
X010773Y003065D01*
X010754Y003063D01*
X010735Y003065D01*
X010716Y003070D01*
X010700Y003080D01*
X010685Y003092D01*
X010673Y003107D01*
X010663Y003123D01*
X010658Y003142D01*
X010656Y003161D01*
X013531Y007286D02*
X013533Y007305D01*
X013538Y007324D01*
X013548Y007340D01*
X013560Y007355D01*
X013575Y007367D01*
X013591Y007377D01*
X013610Y007382D01*
X013629Y007384D01*
X013648Y007382D01*
X013667Y007377D01*
X013683Y007367D01*
X013698Y007355D01*
X013710Y007340D01*
X013720Y007324D01*
X013725Y007305D01*
X013727Y007286D01*
X013725Y007267D01*
X013720Y007248D01*
X013710Y007232D01*
X013698Y007217D01*
X013683Y007205D01*
X013667Y007195D01*
X013648Y007190D01*
X013629Y007188D01*
X013610Y007190D01*
X013591Y007195D01*
X013575Y007205D01*
X013560Y007217D01*
X013548Y007232D01*
X013538Y007248D01*
X013533Y007267D01*
X013531Y007286D01*
X013156Y008161D02*
X013158Y008180D01*
X013163Y008199D01*
X013173Y008215D01*
X013185Y008230D01*
X013200Y008242D01*
X013216Y008252D01*
X013235Y008257D01*
X013254Y008259D01*
X013273Y008257D01*
X013292Y008252D01*
X013308Y008242D01*
X013323Y008230D01*
X013335Y008215D01*
X013345Y008199D01*
X013350Y008180D01*
X013352Y008161D01*
X013350Y008142D01*
X013345Y008123D01*
X013335Y008107D01*
X013323Y008092D01*
X013308Y008080D01*
X013292Y008070D01*
X013273Y008065D01*
X013254Y008063D01*
X013235Y008065D01*
X013216Y008070D01*
X013200Y008080D01*
X013185Y008092D01*
X013173Y008107D01*
X013163Y008123D01*
X013158Y008142D01*
X013156Y008161D01*
X013531Y009036D02*
X013533Y009055D01*
X013538Y009074D01*
X013548Y009090D01*
X013560Y009105D01*
X013575Y009117D01*
X013591Y009127D01*
X013610Y009132D01*
X013629Y009134D01*
X013648Y009132D01*
X013667Y009127D01*
X013683Y009117D01*
X013698Y009105D01*
X013710Y009090D01*
X013720Y009074D01*
X013725Y009055D01*
X013727Y009036D01*
X013725Y009017D01*
X013720Y008998D01*
X013710Y008982D01*
X013698Y008967D01*
X013683Y008955D01*
X013667Y008945D01*
X013648Y008940D01*
X013629Y008938D01*
X013610Y008940D01*
X013591Y008945D01*
X013575Y008955D01*
X013560Y008967D01*
X013548Y008982D01*
X013538Y008998D01*
X013533Y009017D01*
X013531Y009036D01*
X014406Y009411D02*
X014408Y009430D01*
X014413Y009449D01*
X014423Y009465D01*
X014435Y009480D01*
X014450Y009492D01*
X014466Y009502D01*
X014485Y009507D01*
X014504Y009509D01*
X014523Y009507D01*
X014542Y009502D01*
X014558Y009492D01*
X014573Y009480D01*
X014585Y009465D01*
X014595Y009449D01*
X014600Y009430D01*
X014602Y009411D01*
X014600Y009392D01*
X014595Y009373D01*
X014585Y009357D01*
X014573Y009342D01*
X014558Y009330D01*
X014542Y009320D01*
X014523Y009315D01*
X014504Y009313D01*
X014485Y009315D01*
X014466Y009320D01*
X014450Y009330D01*
X014435Y009342D01*
X014423Y009357D01*
X014413Y009373D01*
X014408Y009392D01*
X014406Y009411D01*
X015281Y009036D02*
X015283Y009055D01*
X015288Y009074D01*
X015298Y009090D01*
X015310Y009105D01*
X015325Y009117D01*
X015341Y009127D01*
X015360Y009132D01*
X015379Y009134D01*
X015398Y009132D01*
X015417Y009127D01*
X015433Y009117D01*
X015448Y009105D01*
X015460Y009090D01*
X015470Y009074D01*
X015475Y009055D01*
X015477Y009036D01*
X015475Y009017D01*
X015470Y008998D01*
X015460Y008982D01*
X015448Y008967D01*
X015433Y008955D01*
X015417Y008945D01*
X015398Y008940D01*
X015379Y008938D01*
X015360Y008940D01*
X015341Y008945D01*
X015325Y008955D01*
X015310Y008967D01*
X015298Y008982D01*
X015288Y008998D01*
X015283Y009017D01*
X015281Y009036D01*
X015656Y008161D02*
X015658Y008180D01*
X015663Y008199D01*
X015673Y008215D01*
X015685Y008230D01*
X015700Y008242D01*
X015716Y008252D01*
X015735Y008257D01*
X015754Y008259D01*
X015773Y008257D01*
X015792Y008252D01*
X015808Y008242D01*
X015823Y008230D01*
X015835Y008215D01*
X015845Y008199D01*
X015850Y008180D01*
X015852Y008161D01*
X015850Y008142D01*
X015845Y008123D01*
X015835Y008107D01*
X015823Y008092D01*
X015808Y008080D01*
X015792Y008070D01*
X015773Y008065D01*
X015754Y008063D01*
X015735Y008065D01*
X015716Y008070D01*
X015700Y008080D01*
X015685Y008092D01*
X015673Y008107D01*
X015663Y008123D01*
X015658Y008142D01*
X015656Y008161D01*
X015281Y007286D02*
X015283Y007305D01*
X015288Y007324D01*
X015298Y007340D01*
X015310Y007355D01*
X015325Y007367D01*
X015341Y007377D01*
X015360Y007382D01*
X015379Y007384D01*
X015398Y007382D01*
X015417Y007377D01*
X015433Y007367D01*
X015448Y007355D01*
X015460Y007340D01*
X015470Y007324D01*
X015475Y007305D01*
X015477Y007286D01*
X015475Y007267D01*
X015470Y007248D01*
X015460Y007232D01*
X015448Y007217D01*
X015433Y007205D01*
X015417Y007195D01*
X015398Y007190D01*
X015379Y007188D01*
X015360Y007190D01*
X015341Y007195D01*
X015325Y007205D01*
X015310Y007217D01*
X015298Y007232D01*
X015288Y007248D01*
X015283Y007267D01*
X015281Y007286D01*
X014406Y006911D02*
X014408Y006930D01*
X014413Y006949D01*
X014423Y006965D01*
X014435Y006980D01*
X014450Y006992D01*
X014466Y007002D01*
X014485Y007007D01*
X014504Y007009D01*
X014523Y007007D01*
X014542Y007002D01*
X014558Y006992D01*
X014573Y006980D01*
X014585Y006965D01*
X014595Y006949D01*
X014600Y006930D01*
X014602Y006911D01*
X014600Y006892D01*
X014595Y006873D01*
X014585Y006857D01*
X014573Y006842D01*
X014558Y006830D01*
X014542Y006820D01*
X014523Y006815D01*
X014504Y006813D01*
X014485Y006815D01*
X014466Y006820D01*
X014450Y006830D01*
X014435Y006842D01*
X014423Y006857D01*
X014413Y006873D01*
X014408Y006892D01*
X014406Y006911D01*
X024516Y018397D02*
X024518Y018422D01*
X024524Y018446D01*
X024533Y018468D01*
X024546Y018489D01*
X024562Y018508D01*
X024581Y018524D01*
X024602Y018537D01*
X024624Y018546D01*
X024648Y018552D01*
X024673Y018554D01*
X024698Y018552D01*
X024722Y018546D01*
X024744Y018537D01*
X024765Y018524D01*
X024784Y018508D01*
X024800Y018489D01*
X024813Y018468D01*
X024822Y018446D01*
X024828Y018422D01*
X024830Y018397D01*
X024828Y018372D01*
X024822Y018348D01*
X024813Y018326D01*
X024800Y018305D01*
X024784Y018286D01*
X024765Y018270D01*
X024744Y018257D01*
X024722Y018248D01*
X024698Y018242D01*
X024673Y018240D01*
X024648Y018242D01*
X024624Y018248D01*
X024602Y018257D01*
X024581Y018270D01*
X024562Y018286D01*
X024546Y018305D01*
X024533Y018326D01*
X024524Y018348D01*
X024518Y018372D01*
X024516Y018397D01*
X016156Y025161D02*
X016158Y025180D01*
X016163Y025199D01*
X016173Y025215D01*
X016185Y025230D01*
X016200Y025242D01*
X016216Y025252D01*
X016235Y025257D01*
X016254Y025259D01*
X016273Y025257D01*
X016292Y025252D01*
X016308Y025242D01*
X016323Y025230D01*
X016335Y025215D01*
X016345Y025199D01*
X016350Y025180D01*
X016352Y025161D01*
X016350Y025142D01*
X016345Y025123D01*
X016335Y025107D01*
X016323Y025092D01*
X016308Y025080D01*
X016292Y025070D01*
X016273Y025065D01*
X016254Y025063D01*
X016235Y025065D01*
X016216Y025070D01*
X016200Y025080D01*
X016185Y025092D01*
X016173Y025107D01*
X016163Y025123D01*
X016158Y025142D01*
X016156Y025161D01*
X015781Y024286D02*
X015783Y024305D01*
X015788Y024324D01*
X015798Y024340D01*
X015810Y024355D01*
X015825Y024367D01*
X015841Y024377D01*
X015860Y024382D01*
X015879Y024384D01*
X015898Y024382D01*
X015917Y024377D01*
X015933Y024367D01*
X015948Y024355D01*
X015960Y024340D01*
X015970Y024324D01*
X015975Y024305D01*
X015977Y024286D01*
X015975Y024267D01*
X015970Y024248D01*
X015960Y024232D01*
X015948Y024217D01*
X015933Y024205D01*
X015917Y024195D01*
X015898Y024190D01*
X015879Y024188D01*
X015860Y024190D01*
X015841Y024195D01*
X015825Y024205D01*
X015810Y024217D01*
X015798Y024232D01*
X015788Y024248D01*
X015783Y024267D01*
X015781Y024286D01*
X014906Y023911D02*
X014908Y023930D01*
X014913Y023949D01*
X014923Y023965D01*
X014935Y023980D01*
X014950Y023992D01*
X014966Y024002D01*
X014985Y024007D01*
X015004Y024009D01*
X015023Y024007D01*
X015042Y024002D01*
X015058Y023992D01*
X015073Y023980D01*
X015085Y023965D01*
X015095Y023949D01*
X015100Y023930D01*
X015102Y023911D01*
X015100Y023892D01*
X015095Y023873D01*
X015085Y023857D01*
X015073Y023842D01*
X015058Y023830D01*
X015042Y023820D01*
X015023Y023815D01*
X015004Y023813D01*
X014985Y023815D01*
X014966Y023820D01*
X014950Y023830D01*
X014935Y023842D01*
X014923Y023857D01*
X014913Y023873D01*
X014908Y023892D01*
X014906Y023911D01*
X014031Y024286D02*
X014033Y024305D01*
X014038Y024324D01*
X014048Y024340D01*
X014060Y024355D01*
X014075Y024367D01*
X014091Y024377D01*
X014110Y024382D01*
X014129Y024384D01*
X014148Y024382D01*
X014167Y024377D01*
X014183Y024367D01*
X014198Y024355D01*
X014210Y024340D01*
X014220Y024324D01*
X014225Y024305D01*
X014227Y024286D01*
X014225Y024267D01*
X014220Y024248D01*
X014210Y024232D01*
X014198Y024217D01*
X014183Y024205D01*
X014167Y024195D01*
X014148Y024190D01*
X014129Y024188D01*
X014110Y024190D01*
X014091Y024195D01*
X014075Y024205D01*
X014060Y024217D01*
X014048Y024232D01*
X014038Y024248D01*
X014033Y024267D01*
X014031Y024286D01*
X013656Y025161D02*
X013658Y025180D01*
X013663Y025199D01*
X013673Y025215D01*
X013685Y025230D01*
X013700Y025242D01*
X013716Y025252D01*
X013735Y025257D01*
X013754Y025259D01*
X013773Y025257D01*
X013792Y025252D01*
X013808Y025242D01*
X013823Y025230D01*
X013835Y025215D01*
X013845Y025199D01*
X013850Y025180D01*
X013852Y025161D01*
X013850Y025142D01*
X013845Y025123D01*
X013835Y025107D01*
X013823Y025092D01*
X013808Y025080D01*
X013792Y025070D01*
X013773Y025065D01*
X013754Y025063D01*
X013735Y025065D01*
X013716Y025070D01*
X013700Y025080D01*
X013685Y025092D01*
X013673Y025107D01*
X013663Y025123D01*
X013658Y025142D01*
X013656Y025161D01*
X014031Y026036D02*
X014033Y026055D01*
X014038Y026074D01*
X014048Y026090D01*
X014060Y026105D01*
X014075Y026117D01*
X014091Y026127D01*
X014110Y026132D01*
X014129Y026134D01*
X014148Y026132D01*
X014167Y026127D01*
X014183Y026117D01*
X014198Y026105D01*
X014210Y026090D01*
X014220Y026074D01*
X014225Y026055D01*
X014227Y026036D01*
X014225Y026017D01*
X014220Y025998D01*
X014210Y025982D01*
X014198Y025967D01*
X014183Y025955D01*
X014167Y025945D01*
X014148Y025940D01*
X014129Y025938D01*
X014110Y025940D01*
X014091Y025945D01*
X014075Y025955D01*
X014060Y025967D01*
X014048Y025982D01*
X014038Y025998D01*
X014033Y026017D01*
X014031Y026036D01*
X014906Y026411D02*
X014908Y026430D01*
X014913Y026449D01*
X014923Y026465D01*
X014935Y026480D01*
X014950Y026492D01*
X014966Y026502D01*
X014985Y026507D01*
X015004Y026509D01*
X015023Y026507D01*
X015042Y026502D01*
X015058Y026492D01*
X015073Y026480D01*
X015085Y026465D01*
X015095Y026449D01*
X015100Y026430D01*
X015102Y026411D01*
X015100Y026392D01*
X015095Y026373D01*
X015085Y026357D01*
X015073Y026342D01*
X015058Y026330D01*
X015042Y026320D01*
X015023Y026315D01*
X015004Y026313D01*
X014985Y026315D01*
X014966Y026320D01*
X014950Y026330D01*
X014935Y026342D01*
X014923Y026357D01*
X014913Y026373D01*
X014908Y026392D01*
X014906Y026411D01*
X015781Y026036D02*
X015783Y026055D01*
X015788Y026074D01*
X015798Y026090D01*
X015810Y026105D01*
X015825Y026117D01*
X015841Y026127D01*
X015860Y026132D01*
X015879Y026134D01*
X015898Y026132D01*
X015917Y026127D01*
X015933Y026117D01*
X015948Y026105D01*
X015960Y026090D01*
X015970Y026074D01*
X015975Y026055D01*
X015977Y026036D01*
X015975Y026017D01*
X015970Y025998D01*
X015960Y025982D01*
X015948Y025967D01*
X015933Y025955D01*
X015917Y025945D01*
X015898Y025940D01*
X015879Y025938D01*
X015860Y025940D01*
X015841Y025945D01*
X015825Y025955D01*
X015810Y025967D01*
X015798Y025982D01*
X015788Y025998D01*
X015783Y026017D01*
X015781Y026036D01*
X013156Y032661D02*
X013158Y032680D01*
X013163Y032699D01*
X013173Y032715D01*
X013185Y032730D01*
X013200Y032742D01*
X013216Y032752D01*
X013235Y032757D01*
X013254Y032759D01*
X013273Y032757D01*
X013292Y032752D01*
X013308Y032742D01*
X013323Y032730D01*
X013335Y032715D01*
X013345Y032699D01*
X013350Y032680D01*
X013352Y032661D01*
X013350Y032642D01*
X013345Y032623D01*
X013335Y032607D01*
X013323Y032592D01*
X013308Y032580D01*
X013292Y032570D01*
X013273Y032565D01*
X013254Y032563D01*
X013235Y032565D01*
X013216Y032570D01*
X013200Y032580D01*
X013185Y032592D01*
X013173Y032607D01*
X013163Y032623D01*
X013158Y032642D01*
X013156Y032661D01*
X011156Y032661D02*
X011158Y032680D01*
X011163Y032699D01*
X011173Y032715D01*
X011185Y032730D01*
X011200Y032742D01*
X011216Y032752D01*
X011235Y032757D01*
X011254Y032759D01*
X011273Y032757D01*
X011292Y032752D01*
X011308Y032742D01*
X011323Y032730D01*
X011335Y032715D01*
X011345Y032699D01*
X011350Y032680D01*
X011352Y032661D01*
X011350Y032642D01*
X011345Y032623D01*
X011335Y032607D01*
X011323Y032592D01*
X011308Y032580D01*
X011292Y032570D01*
X011273Y032565D01*
X011254Y032563D01*
X011235Y032565D01*
X011216Y032570D01*
X011200Y032580D01*
X011185Y032592D01*
X011173Y032607D01*
X011163Y032623D01*
X011158Y032642D01*
X011156Y032661D01*
X008656Y032661D02*
X008658Y032680D01*
X008663Y032699D01*
X008673Y032715D01*
X008685Y032730D01*
X008700Y032742D01*
X008716Y032752D01*
X008735Y032757D01*
X008754Y032759D01*
X008773Y032757D01*
X008792Y032752D01*
X008808Y032742D01*
X008823Y032730D01*
X008835Y032715D01*
X008845Y032699D01*
X008850Y032680D01*
X008852Y032661D01*
X008850Y032642D01*
X008845Y032623D01*
X008835Y032607D01*
X008823Y032592D01*
X008808Y032580D01*
X008792Y032570D01*
X008773Y032565D01*
X008754Y032563D01*
X008735Y032565D01*
X008716Y032570D01*
X008700Y032580D01*
X008685Y032592D01*
X008673Y032607D01*
X008663Y032623D01*
X008658Y032642D01*
X008656Y032661D01*
X006656Y032661D02*
X006658Y032680D01*
X006663Y032699D01*
X006673Y032715D01*
X006685Y032730D01*
X006700Y032742D01*
X006716Y032752D01*
X006735Y032757D01*
X006754Y032759D01*
X006773Y032757D01*
X006792Y032752D01*
X006808Y032742D01*
X006823Y032730D01*
X006835Y032715D01*
X006845Y032699D01*
X006850Y032680D01*
X006852Y032661D01*
X006850Y032642D01*
X006845Y032623D01*
X006835Y032607D01*
X006823Y032592D01*
X006808Y032580D01*
X006792Y032570D01*
X006773Y032565D01*
X006754Y032563D01*
X006735Y032565D01*
X006716Y032570D01*
X006700Y032580D01*
X006685Y032592D01*
X006673Y032607D01*
X006663Y032623D01*
X006658Y032642D01*
X006656Y032661D01*
X006656Y036161D02*
X006658Y036180D01*
X006663Y036199D01*
X006673Y036215D01*
X006685Y036230D01*
X006700Y036242D01*
X006716Y036252D01*
X006735Y036257D01*
X006754Y036259D01*
X006773Y036257D01*
X006792Y036252D01*
X006808Y036242D01*
X006823Y036230D01*
X006835Y036215D01*
X006845Y036199D01*
X006850Y036180D01*
X006852Y036161D01*
X006850Y036142D01*
X006845Y036123D01*
X006835Y036107D01*
X006823Y036092D01*
X006808Y036080D01*
X006792Y036070D01*
X006773Y036065D01*
X006754Y036063D01*
X006735Y036065D01*
X006716Y036070D01*
X006700Y036080D01*
X006685Y036092D01*
X006673Y036107D01*
X006663Y036123D01*
X006658Y036142D01*
X006656Y036161D01*
X008656Y036161D02*
X008658Y036180D01*
X008663Y036199D01*
X008673Y036215D01*
X008685Y036230D01*
X008700Y036242D01*
X008716Y036252D01*
X008735Y036257D01*
X008754Y036259D01*
X008773Y036257D01*
X008792Y036252D01*
X008808Y036242D01*
X008823Y036230D01*
X008835Y036215D01*
X008845Y036199D01*
X008850Y036180D01*
X008852Y036161D01*
X008850Y036142D01*
X008845Y036123D01*
X008835Y036107D01*
X008823Y036092D01*
X008808Y036080D01*
X008792Y036070D01*
X008773Y036065D01*
X008754Y036063D01*
X008735Y036065D01*
X008716Y036070D01*
X008700Y036080D01*
X008685Y036092D01*
X008673Y036107D01*
X008663Y036123D01*
X008658Y036142D01*
X008656Y036161D01*
X011156Y036161D02*
X011158Y036180D01*
X011163Y036199D01*
X011173Y036215D01*
X011185Y036230D01*
X011200Y036242D01*
X011216Y036252D01*
X011235Y036257D01*
X011254Y036259D01*
X011273Y036257D01*
X011292Y036252D01*
X011308Y036242D01*
X011323Y036230D01*
X011335Y036215D01*
X011345Y036199D01*
X011350Y036180D01*
X011352Y036161D01*
X011350Y036142D01*
X011345Y036123D01*
X011335Y036107D01*
X011323Y036092D01*
X011308Y036080D01*
X011292Y036070D01*
X011273Y036065D01*
X011254Y036063D01*
X011235Y036065D01*
X011216Y036070D01*
X011200Y036080D01*
X011185Y036092D01*
X011173Y036107D01*
X011163Y036123D01*
X011158Y036142D01*
X011156Y036161D01*
X013156Y036161D02*
X013158Y036180D01*
X013163Y036199D01*
X013173Y036215D01*
X013185Y036230D01*
X013200Y036242D01*
X013216Y036252D01*
X013235Y036257D01*
X013254Y036259D01*
X013273Y036257D01*
X013292Y036252D01*
X013308Y036242D01*
X013323Y036230D01*
X013335Y036215D01*
X013345Y036199D01*
X013350Y036180D01*
X013352Y036161D01*
X013350Y036142D01*
X013345Y036123D01*
X013335Y036107D01*
X013323Y036092D01*
X013308Y036080D01*
X013292Y036070D01*
X013273Y036065D01*
X013254Y036063D01*
X013235Y036065D01*
X013216Y036070D01*
X013200Y036080D01*
X013185Y036092D01*
X013173Y036107D01*
X013163Y036123D01*
X013158Y036142D01*
X013156Y036161D01*
X003906Y026411D02*
X003908Y026430D01*
X003913Y026449D01*
X003923Y026465D01*
X003935Y026480D01*
X003950Y026492D01*
X003966Y026502D01*
X003985Y026507D01*
X004004Y026509D01*
X004023Y026507D01*
X004042Y026502D01*
X004058Y026492D01*
X004073Y026480D01*
X004085Y026465D01*
X004095Y026449D01*
X004100Y026430D01*
X004102Y026411D01*
X004100Y026392D01*
X004095Y026373D01*
X004085Y026357D01*
X004073Y026342D01*
X004058Y026330D01*
X004042Y026320D01*
X004023Y026315D01*
X004004Y026313D01*
X003985Y026315D01*
X003966Y026320D01*
X003950Y026330D01*
X003935Y026342D01*
X003923Y026357D01*
X003913Y026373D01*
X003908Y026392D01*
X003906Y026411D01*
X003031Y026036D02*
X003033Y026055D01*
X003038Y026074D01*
X003048Y026090D01*
X003060Y026105D01*
X003075Y026117D01*
X003091Y026127D01*
X003110Y026132D01*
X003129Y026134D01*
X003148Y026132D01*
X003167Y026127D01*
X003183Y026117D01*
X003198Y026105D01*
X003210Y026090D01*
X003220Y026074D01*
X003225Y026055D01*
X003227Y026036D01*
X003225Y026017D01*
X003220Y025998D01*
X003210Y025982D01*
X003198Y025967D01*
X003183Y025955D01*
X003167Y025945D01*
X003148Y025940D01*
X003129Y025938D01*
X003110Y025940D01*
X003091Y025945D01*
X003075Y025955D01*
X003060Y025967D01*
X003048Y025982D01*
X003038Y025998D01*
X003033Y026017D01*
X003031Y026036D01*
X002656Y025161D02*
X002658Y025180D01*
X002663Y025199D01*
X002673Y025215D01*
X002685Y025230D01*
X002700Y025242D01*
X002716Y025252D01*
X002735Y025257D01*
X002754Y025259D01*
X002773Y025257D01*
X002792Y025252D01*
X002808Y025242D01*
X002823Y025230D01*
X002835Y025215D01*
X002845Y025199D01*
X002850Y025180D01*
X002852Y025161D01*
X002850Y025142D01*
X002845Y025123D01*
X002835Y025107D01*
X002823Y025092D01*
X002808Y025080D01*
X002792Y025070D01*
X002773Y025065D01*
X002754Y025063D01*
X002735Y025065D01*
X002716Y025070D01*
X002700Y025080D01*
X002685Y025092D01*
X002673Y025107D01*
X002663Y025123D01*
X002658Y025142D01*
X002656Y025161D01*
X003031Y024286D02*
X003033Y024305D01*
X003038Y024324D01*
X003048Y024340D01*
X003060Y024355D01*
X003075Y024367D01*
X003091Y024377D01*
X003110Y024382D01*
X003129Y024384D01*
X003148Y024382D01*
X003167Y024377D01*
X003183Y024367D01*
X003198Y024355D01*
X003210Y024340D01*
X003220Y024324D01*
X003225Y024305D01*
X003227Y024286D01*
X003225Y024267D01*
X003220Y024248D01*
X003210Y024232D01*
X003198Y024217D01*
X003183Y024205D01*
X003167Y024195D01*
X003148Y024190D01*
X003129Y024188D01*
X003110Y024190D01*
X003091Y024195D01*
X003075Y024205D01*
X003060Y024217D01*
X003048Y024232D01*
X003038Y024248D01*
X003033Y024267D01*
X003031Y024286D01*
X003906Y023911D02*
X003908Y023930D01*
X003913Y023949D01*
X003923Y023965D01*
X003935Y023980D01*
X003950Y023992D01*
X003966Y024002D01*
X003985Y024007D01*
X004004Y024009D01*
X004023Y024007D01*
X004042Y024002D01*
X004058Y023992D01*
X004073Y023980D01*
X004085Y023965D01*
X004095Y023949D01*
X004100Y023930D01*
X004102Y023911D01*
X004100Y023892D01*
X004095Y023873D01*
X004085Y023857D01*
X004073Y023842D01*
X004058Y023830D01*
X004042Y023820D01*
X004023Y023815D01*
X004004Y023813D01*
X003985Y023815D01*
X003966Y023820D01*
X003950Y023830D01*
X003935Y023842D01*
X003923Y023857D01*
X003913Y023873D01*
X003908Y023892D01*
X003906Y023911D01*
X004781Y024286D02*
X004783Y024305D01*
X004788Y024324D01*
X004798Y024340D01*
X004810Y024355D01*
X004825Y024367D01*
X004841Y024377D01*
X004860Y024382D01*
X004879Y024384D01*
X004898Y024382D01*
X004917Y024377D01*
X004933Y024367D01*
X004948Y024355D01*
X004960Y024340D01*
X004970Y024324D01*
X004975Y024305D01*
X004977Y024286D01*
X004975Y024267D01*
X004970Y024248D01*
X004960Y024232D01*
X004948Y024217D01*
X004933Y024205D01*
X004917Y024195D01*
X004898Y024190D01*
X004879Y024188D01*
X004860Y024190D01*
X004841Y024195D01*
X004825Y024205D01*
X004810Y024217D01*
X004798Y024232D01*
X004788Y024248D01*
X004783Y024267D01*
X004781Y024286D01*
X005156Y025161D02*
X005158Y025180D01*
X005163Y025199D01*
X005173Y025215D01*
X005185Y025230D01*
X005200Y025242D01*
X005216Y025252D01*
X005235Y025257D01*
X005254Y025259D01*
X005273Y025257D01*
X005292Y025252D01*
X005308Y025242D01*
X005323Y025230D01*
X005335Y025215D01*
X005345Y025199D01*
X005350Y025180D01*
X005352Y025161D01*
X005350Y025142D01*
X005345Y025123D01*
X005335Y025107D01*
X005323Y025092D01*
X005308Y025080D01*
X005292Y025070D01*
X005273Y025065D01*
X005254Y025063D01*
X005235Y025065D01*
X005216Y025070D01*
X005200Y025080D01*
X005185Y025092D01*
X005173Y025107D01*
X005163Y025123D01*
X005158Y025142D01*
X005156Y025161D01*
X004781Y026036D02*
X004783Y026055D01*
X004788Y026074D01*
X004798Y026090D01*
X004810Y026105D01*
X004825Y026117D01*
X004841Y026127D01*
X004860Y026132D01*
X004879Y026134D01*
X004898Y026132D01*
X004917Y026127D01*
X004933Y026117D01*
X004948Y026105D01*
X004960Y026090D01*
X004970Y026074D01*
X004975Y026055D01*
X004977Y026036D01*
X004975Y026017D01*
X004970Y025998D01*
X004960Y025982D01*
X004948Y025967D01*
X004933Y025955D01*
X004917Y025945D01*
X004898Y025940D01*
X004879Y025938D01*
X004860Y025940D01*
X004841Y025945D01*
X004825Y025955D01*
X004810Y025967D01*
X004798Y025982D01*
X004788Y025998D01*
X004783Y026017D01*
X004781Y026036D01*
X002379Y036661D02*
X002381Y036711D01*
X002387Y036760D01*
X002397Y036809D01*
X002410Y036856D01*
X002428Y036903D01*
X002449Y036948D01*
X002473Y036991D01*
X002501Y037032D01*
X002532Y037071D01*
X002566Y037107D01*
X002603Y037141D01*
X002643Y037171D01*
X002684Y037198D01*
X002728Y037222D01*
X002773Y037242D01*
X002820Y037258D01*
X002868Y037271D01*
X002917Y037280D01*
X002967Y037285D01*
X003016Y037286D01*
X003066Y037283D01*
X003115Y037276D01*
X003164Y037265D01*
X003211Y037251D01*
X003257Y037232D01*
X003302Y037210D01*
X003345Y037185D01*
X003385Y037156D01*
X003423Y037124D01*
X003459Y037090D01*
X003492Y037052D01*
X003521Y037012D01*
X003547Y036970D01*
X003570Y036926D01*
X003589Y036880D01*
X003605Y036833D01*
X003617Y036784D01*
X003625Y036735D01*
X003629Y036686D01*
X003629Y036636D01*
X003625Y036587D01*
X003617Y036538D01*
X003605Y036489D01*
X003589Y036442D01*
X003570Y036396D01*
X003547Y036352D01*
X003521Y036310D01*
X003492Y036270D01*
X003459Y036232D01*
X003423Y036198D01*
X003385Y036166D01*
X003345Y036137D01*
X003302Y036112D01*
X003257Y036090D01*
X003211Y036071D01*
X003164Y036057D01*
X003115Y036046D01*
X003066Y036039D01*
X003016Y036036D01*
X002967Y036037D01*
X002917Y036042D01*
X002868Y036051D01*
X002820Y036064D01*
X002773Y036080D01*
X002728Y036100D01*
X002684Y036124D01*
X002643Y036151D01*
X002603Y036181D01*
X002566Y036215D01*
X002532Y036251D01*
X002501Y036290D01*
X002473Y036331D01*
X002449Y036374D01*
X002428Y036419D01*
X002410Y036466D01*
X002397Y036513D01*
X002387Y036562D01*
X002381Y036611D01*
X002379Y036661D01*
X024516Y034224D02*
X024518Y034249D01*
X024524Y034273D01*
X024533Y034295D01*
X024546Y034316D01*
X024562Y034335D01*
X024581Y034351D01*
X024602Y034364D01*
X024624Y034373D01*
X024648Y034379D01*
X024673Y034381D01*
X024698Y034379D01*
X024722Y034373D01*
X024744Y034364D01*
X024765Y034351D01*
X024784Y034335D01*
X024800Y034316D01*
X024813Y034295D01*
X024822Y034273D01*
X024828Y034249D01*
X024830Y034224D01*
X024828Y034199D01*
X024822Y034175D01*
X024813Y034153D01*
X024800Y034132D01*
X024784Y034113D01*
X024765Y034097D01*
X024744Y034084D01*
X024722Y034075D01*
X024698Y034069D01*
X024673Y034067D01*
X024648Y034069D01*
X024624Y034075D01*
X024602Y034084D01*
X024581Y034097D01*
X024562Y034113D01*
X024546Y034132D01*
X024533Y034153D01*
X024524Y034175D01*
X024518Y034199D01*
X024516Y034224D01*
X033453Y034224D02*
X033455Y034249D01*
X033461Y034273D01*
X033470Y034295D01*
X033483Y034316D01*
X033499Y034335D01*
X033518Y034351D01*
X033539Y034364D01*
X033561Y034373D01*
X033585Y034379D01*
X033610Y034381D01*
X033635Y034379D01*
X033659Y034373D01*
X033681Y034364D01*
X033702Y034351D01*
X033721Y034335D01*
X033737Y034316D01*
X033750Y034295D01*
X033759Y034273D01*
X033765Y034249D01*
X033767Y034224D01*
X033765Y034199D01*
X033759Y034175D01*
X033750Y034153D01*
X033737Y034132D01*
X033721Y034113D01*
X033702Y034097D01*
X033681Y034084D01*
X033659Y034075D01*
X033635Y034069D01*
X033610Y034067D01*
X033585Y034069D01*
X033561Y034075D01*
X033539Y034084D01*
X033518Y034097D01*
X033499Y034113D01*
X033483Y034132D01*
X033470Y034153D01*
X033461Y034175D01*
X033455Y034199D01*
X033453Y034224D01*
X036379Y036661D02*
X036381Y036711D01*
X036387Y036760D01*
X036397Y036809D01*
X036410Y036856D01*
X036428Y036903D01*
X036449Y036948D01*
X036473Y036991D01*
X036501Y037032D01*
X036532Y037071D01*
X036566Y037107D01*
X036603Y037141D01*
X036643Y037171D01*
X036684Y037198D01*
X036728Y037222D01*
X036773Y037242D01*
X036820Y037258D01*
X036868Y037271D01*
X036917Y037280D01*
X036967Y037285D01*
X037016Y037286D01*
X037066Y037283D01*
X037115Y037276D01*
X037164Y037265D01*
X037211Y037251D01*
X037257Y037232D01*
X037302Y037210D01*
X037345Y037185D01*
X037385Y037156D01*
X037423Y037124D01*
X037459Y037090D01*
X037492Y037052D01*
X037521Y037012D01*
X037547Y036970D01*
X037570Y036926D01*
X037589Y036880D01*
X037605Y036833D01*
X037617Y036784D01*
X037625Y036735D01*
X037629Y036686D01*
X037629Y036636D01*
X037625Y036587D01*
X037617Y036538D01*
X037605Y036489D01*
X037589Y036442D01*
X037570Y036396D01*
X037547Y036352D01*
X037521Y036310D01*
X037492Y036270D01*
X037459Y036232D01*
X037423Y036198D01*
X037385Y036166D01*
X037345Y036137D01*
X037302Y036112D01*
X037257Y036090D01*
X037211Y036071D01*
X037164Y036057D01*
X037115Y036046D01*
X037066Y036039D01*
X037016Y036036D01*
X036967Y036037D01*
X036917Y036042D01*
X036868Y036051D01*
X036820Y036064D01*
X036773Y036080D01*
X036728Y036100D01*
X036684Y036124D01*
X036643Y036151D01*
X036603Y036181D01*
X036566Y036215D01*
X036532Y036251D01*
X036501Y036290D01*
X036473Y036331D01*
X036449Y036374D01*
X036428Y036419D01*
X036410Y036466D01*
X036397Y036513D01*
X036387Y036562D01*
X036381Y036611D01*
X036379Y036661D01*
X033611Y018397D02*
X033613Y018422D01*
X033619Y018446D01*
X033628Y018468D01*
X033641Y018489D01*
X033657Y018508D01*
X033676Y018524D01*
X033697Y018537D01*
X033719Y018546D01*
X033743Y018552D01*
X033768Y018554D01*
X033793Y018552D01*
X033817Y018546D01*
X033839Y018537D01*
X033860Y018524D01*
X033879Y018508D01*
X033895Y018489D01*
X033908Y018468D01*
X033917Y018446D01*
X033923Y018422D01*
X033925Y018397D01*
X033923Y018372D01*
X033917Y018348D01*
X033908Y018326D01*
X033895Y018305D01*
X033879Y018286D01*
X033860Y018270D01*
X033839Y018257D01*
X033817Y018248D01*
X033793Y018242D01*
X033768Y018240D01*
X033743Y018242D01*
X033719Y018248D01*
X033697Y018257D01*
X033676Y018270D01*
X033657Y018286D01*
X033641Y018305D01*
X033628Y018326D01*
X033619Y018348D01*
X033613Y018372D01*
X033611Y018397D01*
X037077Y009850D02*
X037079Y009876D01*
X037085Y009902D01*
X037095Y009927D01*
X037108Y009950D01*
X037124Y009970D01*
X037144Y009988D01*
X037166Y010003D01*
X037189Y010015D01*
X037215Y010023D01*
X037241Y010027D01*
X037267Y010027D01*
X037293Y010023D01*
X037319Y010015D01*
X037343Y010003D01*
X037364Y009988D01*
X037384Y009970D01*
X037400Y009950D01*
X037413Y009927D01*
X037423Y009902D01*
X037429Y009876D01*
X037431Y009850D01*
X037429Y009824D01*
X037423Y009798D01*
X037413Y009773D01*
X037400Y009750D01*
X037384Y009730D01*
X037364Y009712D01*
X037342Y009697D01*
X037319Y009685D01*
X037293Y009677D01*
X037267Y009673D01*
X037241Y009673D01*
X037215Y009677D01*
X037189Y009685D01*
X037165Y009697D01*
X037144Y009712D01*
X037124Y009730D01*
X037108Y009750D01*
X037095Y009773D01*
X037085Y009798D01*
X037079Y009824D01*
X037077Y009850D01*
X037077Y008472D02*
X037079Y008498D01*
X037085Y008524D01*
X037095Y008549D01*
X037108Y008572D01*
X037124Y008592D01*
X037144Y008610D01*
X037166Y008625D01*
X037189Y008637D01*
X037215Y008645D01*
X037241Y008649D01*
X037267Y008649D01*
X037293Y008645D01*
X037319Y008637D01*
X037343Y008625D01*
X037364Y008610D01*
X037384Y008592D01*
X037400Y008572D01*
X037413Y008549D01*
X037423Y008524D01*
X037429Y008498D01*
X037431Y008472D01*
X037429Y008446D01*
X037423Y008420D01*
X037413Y008395D01*
X037400Y008372D01*
X037384Y008352D01*
X037364Y008334D01*
X037342Y008319D01*
X037319Y008307D01*
X037293Y008299D01*
X037267Y008295D01*
X037241Y008295D01*
X037215Y008299D01*
X037189Y008307D01*
X037165Y008319D01*
X037144Y008334D01*
X037124Y008352D01*
X037108Y008372D01*
X037095Y008395D01*
X037085Y008420D01*
X037079Y008446D01*
X037077Y008472D01*
X036379Y002661D02*
X036381Y002711D01*
X036387Y002760D01*
X036397Y002809D01*
X036410Y002856D01*
X036428Y002903D01*
X036449Y002948D01*
X036473Y002991D01*
X036501Y003032D01*
X036532Y003071D01*
X036566Y003107D01*
X036603Y003141D01*
X036643Y003171D01*
X036684Y003198D01*
X036728Y003222D01*
X036773Y003242D01*
X036820Y003258D01*
X036868Y003271D01*
X036917Y003280D01*
X036967Y003285D01*
X037016Y003286D01*
X037066Y003283D01*
X037115Y003276D01*
X037164Y003265D01*
X037211Y003251D01*
X037257Y003232D01*
X037302Y003210D01*
X037345Y003185D01*
X037385Y003156D01*
X037423Y003124D01*
X037459Y003090D01*
X037492Y003052D01*
X037521Y003012D01*
X037547Y002970D01*
X037570Y002926D01*
X037589Y002880D01*
X037605Y002833D01*
X037617Y002784D01*
X037625Y002735D01*
X037629Y002686D01*
X037629Y002636D01*
X037625Y002587D01*
X037617Y002538D01*
X037605Y002489D01*
X037589Y002442D01*
X037570Y002396D01*
X037547Y002352D01*
X037521Y002310D01*
X037492Y002270D01*
X037459Y002232D01*
X037423Y002198D01*
X037385Y002166D01*
X037345Y002137D01*
X037302Y002112D01*
X037257Y002090D01*
X037211Y002071D01*
X037164Y002057D01*
X037115Y002046D01*
X037066Y002039D01*
X037016Y002036D01*
X036967Y002037D01*
X036917Y002042D01*
X036868Y002051D01*
X036820Y002064D01*
X036773Y002080D01*
X036728Y002100D01*
X036684Y002124D01*
X036643Y002151D01*
X036603Y002181D01*
X036566Y002215D01*
X036532Y002251D01*
X036501Y002290D01*
X036473Y002331D01*
X036449Y002374D01*
X036428Y002419D01*
X036410Y002466D01*
X036397Y002513D01*
X036387Y002562D01*
X036381Y002611D01*
X036379Y002661D01*
M02*
