%
M48
M72
T01C0.0197
T02C0.0256
T03C0.0315
T04C0.0320
T05C0.0354
T06C0.0400
T07C0.0472
T08C0.0492
T09C0.1102
T10C0.1250
T11C0.1875
%
T01
X4004Y26411
X5254Y25161
X4004Y23911
X2754Y25161
X3129Y26036
X4879Y26036
X4879Y24286
X3129Y24286
X15004Y26411
X15879Y26036
X16254Y25161
X15879Y24286
X15004Y23911
X14129Y24286
X13754Y25161
X14129Y26036
X4504Y9411
X5754Y8161
X4504Y6911
X3254Y8161
X13254Y8161
X14504Y9411
X15754Y8161
X14504Y6911
X15379Y7286
X13629Y9036
X13629Y7286
X15379Y9036
X5379Y9036
X5379Y7286
X3629Y7286
X3629Y9036
X12254Y1911
X10254Y1911
X8754Y1911
X6754Y1911
X13254Y32661
X11254Y32661
X13254Y36161
X11254Y36161
X8754Y36161
X6754Y36161
X6754Y32661
X8754Y32661
X10754Y3161
X11754Y3161
X10754Y661
X11754Y661
X11254Y3161
X11254Y661
X7254Y3161
X8254Y3161
X7254Y661
X8254Y661
X7754Y3161
X7754Y661
X28879Y9036
X35379Y10286
X27254Y8786
X27879Y9411
X27254Y10036
X26629Y9411
X27254Y16411
X26379Y4786
X38504Y16911
X38504Y13411
X28129Y24786
X21629Y10536
X22879Y13786
X28379Y6036
X30254Y7661
X23379Y24786
X21129Y24786
X28629Y31411
X25129Y38411
X26004Y6286
X25129Y11536
X38004Y25661
X31004Y24911
X30404Y28886
X36254Y20411
X32754Y20411
X31254Y21161
X32504Y18661
X30754Y13161
X33779Y12511
X31379Y9161
X35704Y26761
X30504Y7161
X22504Y6911
X33504Y16411
X38004Y11911
X24754Y6661
X31504Y10911
X34504Y12411
X32004Y16811
X31004Y11161
X34004Y12086
X31504Y10411
X27254Y9411
X33754Y11661
X24004Y31035
X24004Y10041
X29504Y11661
X29504Y16811
X25254Y30445
X25754Y10161
X20004Y9411
X26754Y13161
X33004Y36911
X26254Y13161
X27004Y36911
X25754Y13161
X23004Y36874
X37379Y27161
X26929Y12236
X26754Y12661
X37004Y26786
T02
X33768Y21586
X33768Y22177
X33768Y22768
X33768Y23358
X33768Y23949
X33768Y24539
X33768Y25130
X33768Y25720
X33768Y26311
X33768Y26901
X33768Y27492
X33768Y28083
X33768Y28673
X33768Y29264
X33768Y29854
X33768Y30445
X33768Y31035
T03
X33768Y18397
X33610Y34224
X24673Y18397
X24673Y34224
T04
X23254Y2411
X23254Y3411
X23254Y8411
X20254Y8411
X23254Y4411
X23254Y5411
X23254Y7411
X23254Y6411
X20254Y7411
X20254Y6411
X20254Y5411
X20254Y4411
X20254Y3411
X20254Y2411
T05
X37254Y8472
X37254Y9850
X36129Y17536
X35629Y18036
T06
X27254Y1161
X29254Y1161
X28254Y5161
X17504Y37161
X17504Y38161
X31504Y16161
X32504Y16161
X31504Y15161
X32504Y15161
X31504Y14161
X32504Y14161
X31004Y19911
X31004Y18911
X17504Y34411
X17504Y35411
T07
X17254Y1661
X18632Y1661
T08
X33000Y19500
X33000Y33122
T09
X12254Y33661
X7754Y33661
X12254Y35161
X7754Y35161
T10
X3004Y2661
X3004Y36661
X37004Y36661
X37004Y2661
X11254Y1911
X7754Y1911
T11
X4504Y8161
X14504Y8161
X4004Y25161
X15004Y25161
M30
