%
M48
M72
T01C0.0150
T02C0.0300
T03C0.0315
T04C0.0350
T05C0.0400
T06C0.0787
%
T01
X2622Y5059
X3922Y1959
X2622Y3459
X4022Y6509
X1772Y3559
X1772Y4959
X5122Y6009
X5322Y1259
X4922Y1259
X16008Y5059
X17308Y1959
X16008Y3459
X17408Y6509
X15158Y3559
X15158Y4959
X18508Y6009
X18708Y1259
X18308Y1259
X9315Y5059
X10615Y1959
X9315Y3459
X10715Y6509
X8465Y3559
X8465Y4959
X11815Y6009
X12015Y1259
X11615Y1259
X2622Y13326
X3922Y10226
X2622Y11726
X4022Y14776
X1772Y11826
X1772Y13226
X5122Y14276
X5322Y9526
X4922Y9526
X16008Y13326
X17308Y10226
X16008Y11726
X17408Y14776
X15158Y11826
X15158Y13226
X18508Y14276
X18708Y9526
X18308Y9526
T02
X3422Y4259
X3422Y3859
X3422Y4659
X4222Y4659
X4222Y3859
X3822Y3859
X3822Y4259
X3822Y4659
X4222Y4259
X16808Y4259
X16808Y3859
X16808Y4659
X17608Y4659
X17608Y3859
X17208Y3859
X17208Y4259
X17208Y4659
X17608Y4259
X10115Y4259
X10115Y3859
X10115Y4659
X10915Y4659
X10915Y3859
X10515Y3859
X10515Y4259
X10515Y4659
X10915Y4259
X3422Y12526
X3422Y12126
X3422Y12926
X4222Y12926
X4222Y12126
X3822Y12126
X3822Y12526
X3822Y12926
X4222Y12526
X16808Y12526
X16808Y12126
X16808Y12926
X17608Y12926
X17608Y12126
X17208Y12126
X17208Y12526
X17208Y12926
X17608Y12526
T03
X7721Y14694
X7721Y17843
X11135Y15347
X10131Y15721
X9127Y17483
X12591Y11125
X11135Y17788
X7670Y16558
X8349Y14383
X11804Y14087
X9147Y12503
X9127Y15456
X11066Y14609
X10534Y12119
T04
X5822Y3759
X822Y4759
X5822Y4759
X5822Y5759
X5822Y6759
X5822Y2759
X5822Y1759
X5822Y7759
X5822Y759
X822Y759
X822Y1759
X822Y2759
X822Y3759
X822Y5759
X822Y6759
X822Y7759
X19208Y3759
X14208Y4759
X19208Y4759
X19208Y5759
X19208Y6759
X19208Y2759
X19208Y1759
X19208Y7759
X19208Y759
X14208Y759
X14208Y1759
X14208Y2759
X14208Y3759
X14208Y5759
X14208Y6759
X14208Y7759
X12515Y3759
X7515Y4759
X12515Y4759
X12515Y5759
X12515Y6759
X12515Y2759
X12515Y1759
X12515Y7759
X12515Y759
X7515Y759
X7515Y1759
X7515Y2759
X7515Y3759
X7515Y5759
X7515Y6759
X7515Y7759
X5822Y12026
X822Y13026
X5822Y13026
X5822Y14026
X5822Y15026
X5822Y11026
X5822Y10026
X5822Y16026
X5822Y9026
X822Y9026
X822Y10026
X822Y11026
X822Y12026
X822Y14026
X822Y15026
X822Y16026
X19208Y12026
X14208Y13026
X19208Y13026
X19208Y14026
X19208Y15026
X19208Y11026
X19208Y10026
X19208Y16026
X19208Y9026
X14208Y9026
X14208Y10026
X14208Y11026
X14208Y12026
X14208Y14026
X14208Y15026
X14208Y16026
T05
X12359Y10158
X11359Y10158
X10359Y10158
X9359Y10158
X12359Y9158
X11359Y9158
X10359Y9158
X9359Y9158
X8337Y10127
X8337Y9127
X7337Y10127
X7337Y9127
T06
X7237Y15347
X11883Y11469
M30
