G75*
G70*
%OFA0B0*%
%FSLAX24Y24*%
%IPPOS*%
%LPD*%
%AMOC8*
5,1,8,0,0,1.08239X$1,22.5*
%
%ADD10C,0.0160*%
%ADD11C,0.0000*%
%ADD12R,0.0260X0.0800*%
%ADD13R,0.0480X0.0880*%
%ADD14R,0.1417X0.0866*%
D10*
X000180Y000180D02*
X000180Y019865D01*
X019865Y019865D01*
X019865Y000180D01*
X000180Y000180D01*
D11*
X000322Y000759D02*
X000322Y007759D01*
X000324Y007803D01*
X000330Y007846D01*
X000339Y007888D01*
X000352Y007930D01*
X000369Y007970D01*
X000389Y008009D01*
X000412Y008046D01*
X000439Y008080D01*
X000468Y008113D01*
X000501Y008142D01*
X000535Y008169D01*
X000572Y008192D01*
X000611Y008212D01*
X000651Y008229D01*
X000693Y008242D01*
X000735Y008251D01*
X000778Y008257D01*
X000822Y008259D01*
X000822Y008526D02*
X005822Y008526D01*
X005866Y008528D01*
X005909Y008534D01*
X005951Y008543D01*
X005993Y008556D01*
X006033Y008573D01*
X006072Y008593D01*
X006109Y008616D01*
X006143Y008643D01*
X006176Y008672D01*
X006205Y008705D01*
X006232Y008739D01*
X006255Y008776D01*
X006275Y008815D01*
X006292Y008855D01*
X006305Y008897D01*
X006314Y008939D01*
X006320Y008982D01*
X006322Y009026D01*
X006322Y016026D01*
X006320Y016070D01*
X006314Y016113D01*
X006305Y016155D01*
X006292Y016197D01*
X006275Y016237D01*
X006255Y016276D01*
X006232Y016313D01*
X006205Y016347D01*
X006176Y016380D01*
X006143Y016409D01*
X006109Y016436D01*
X006072Y016459D01*
X006033Y016479D01*
X005993Y016496D01*
X005951Y016509D01*
X005909Y016518D01*
X005866Y016524D01*
X005822Y016526D01*
X006843Y015347D02*
X006845Y015386D01*
X006851Y015425D01*
X006861Y015463D01*
X006874Y015500D01*
X006891Y015535D01*
X006911Y015569D01*
X006935Y015600D01*
X006962Y015629D01*
X006991Y015655D01*
X007023Y015678D01*
X007057Y015698D01*
X007093Y015714D01*
X007130Y015726D01*
X007169Y015735D01*
X007208Y015740D01*
X007247Y015741D01*
X007286Y015738D01*
X007325Y015731D01*
X007362Y015720D01*
X007399Y015706D01*
X007434Y015688D01*
X007467Y015667D01*
X007498Y015642D01*
X007526Y015615D01*
X007551Y015585D01*
X007573Y015552D01*
X007592Y015518D01*
X007607Y015482D01*
X007619Y015444D01*
X007627Y015406D01*
X007631Y015367D01*
X007631Y015327D01*
X007627Y015288D01*
X007619Y015250D01*
X007607Y015212D01*
X007592Y015176D01*
X007573Y015142D01*
X007551Y015109D01*
X007526Y015079D01*
X007498Y015052D01*
X007467Y015027D01*
X007434Y015006D01*
X007399Y014988D01*
X007362Y014974D01*
X007325Y014963D01*
X007286Y014956D01*
X007247Y014953D01*
X007208Y014954D01*
X007169Y014959D01*
X007130Y014968D01*
X007093Y014980D01*
X007057Y014996D01*
X007023Y015016D01*
X006991Y015039D01*
X006962Y015065D01*
X006935Y015094D01*
X006911Y015125D01*
X006891Y015159D01*
X006874Y015194D01*
X006861Y015231D01*
X006851Y015269D01*
X006845Y015308D01*
X006843Y015347D01*
X007564Y014694D02*
X007566Y014719D01*
X007572Y014743D01*
X007581Y014765D01*
X007594Y014786D01*
X007610Y014805D01*
X007629Y014821D01*
X007650Y014834D01*
X007672Y014843D01*
X007696Y014849D01*
X007721Y014851D01*
X007746Y014849D01*
X007770Y014843D01*
X007792Y014834D01*
X007813Y014821D01*
X007832Y014805D01*
X007848Y014786D01*
X007861Y014765D01*
X007870Y014743D01*
X007876Y014719D01*
X007878Y014694D01*
X007876Y014669D01*
X007870Y014645D01*
X007861Y014623D01*
X007848Y014602D01*
X007832Y014583D01*
X007813Y014567D01*
X007792Y014554D01*
X007770Y014545D01*
X007746Y014539D01*
X007721Y014537D01*
X007696Y014539D01*
X007672Y014545D01*
X007650Y014554D01*
X007629Y014567D01*
X007610Y014583D01*
X007594Y014602D01*
X007581Y014623D01*
X007572Y014645D01*
X007566Y014669D01*
X007564Y014694D01*
X007564Y017843D02*
X007566Y017868D01*
X007572Y017892D01*
X007581Y017914D01*
X007594Y017935D01*
X007610Y017954D01*
X007629Y017970D01*
X007650Y017983D01*
X007672Y017992D01*
X007696Y017998D01*
X007721Y018000D01*
X007746Y017998D01*
X007770Y017992D01*
X007792Y017983D01*
X007813Y017970D01*
X007832Y017954D01*
X007848Y017935D01*
X007861Y017914D01*
X007870Y017892D01*
X007876Y017868D01*
X007878Y017843D01*
X007876Y017818D01*
X007870Y017794D01*
X007861Y017772D01*
X007848Y017751D01*
X007832Y017732D01*
X007813Y017716D01*
X007792Y017703D01*
X007770Y017694D01*
X007746Y017688D01*
X007721Y017686D01*
X007696Y017688D01*
X007672Y017694D01*
X007650Y017703D01*
X007629Y017716D01*
X007610Y017732D01*
X007594Y017751D01*
X007581Y017772D01*
X007572Y017794D01*
X007566Y017818D01*
X007564Y017843D01*
X006745Y019481D02*
X013044Y019481D01*
X013044Y008556D01*
X006745Y008556D01*
X006745Y019481D01*
X000822Y016526D02*
X000778Y016524D01*
X000735Y016518D01*
X000693Y016509D01*
X000651Y016496D01*
X000611Y016479D01*
X000572Y016459D01*
X000535Y016436D01*
X000501Y016409D01*
X000468Y016380D01*
X000439Y016347D01*
X000412Y016313D01*
X000389Y016276D01*
X000369Y016237D01*
X000352Y016197D01*
X000339Y016155D01*
X000330Y016113D01*
X000324Y016070D01*
X000322Y016026D01*
X000322Y009026D01*
X000324Y008982D01*
X000330Y008939D01*
X000339Y008897D01*
X000352Y008855D01*
X000369Y008815D01*
X000389Y008776D01*
X000412Y008739D01*
X000439Y008705D01*
X000468Y008672D01*
X000501Y008643D01*
X000535Y008616D01*
X000572Y008593D01*
X000611Y008573D01*
X000651Y008556D01*
X000693Y008543D01*
X000735Y008534D01*
X000778Y008528D01*
X000822Y008526D01*
X005822Y008259D02*
X005866Y008257D01*
X005909Y008251D01*
X005951Y008242D01*
X005993Y008229D01*
X006033Y008212D01*
X006072Y008192D01*
X006109Y008169D01*
X006143Y008142D01*
X006176Y008113D01*
X006205Y008080D01*
X006232Y008046D01*
X006255Y008009D01*
X006275Y007970D01*
X006292Y007930D01*
X006305Y007888D01*
X006314Y007846D01*
X006320Y007803D01*
X006322Y007759D01*
X006322Y000759D01*
X006320Y000715D01*
X006314Y000672D01*
X006305Y000630D01*
X006292Y000588D01*
X006275Y000548D01*
X006255Y000509D01*
X006232Y000472D01*
X006205Y000438D01*
X006176Y000405D01*
X006143Y000376D01*
X006109Y000349D01*
X006072Y000326D01*
X006033Y000306D01*
X005993Y000289D01*
X005951Y000276D01*
X005909Y000267D01*
X005866Y000261D01*
X005822Y000259D01*
X000822Y000259D01*
X000778Y000261D01*
X000735Y000267D01*
X000693Y000276D01*
X000651Y000289D01*
X000611Y000306D01*
X000572Y000326D01*
X000535Y000349D01*
X000501Y000376D01*
X000468Y000405D01*
X000439Y000438D01*
X000412Y000472D01*
X000389Y000509D01*
X000369Y000548D01*
X000352Y000588D01*
X000339Y000630D01*
X000330Y000672D01*
X000324Y000715D01*
X000322Y000759D01*
X007015Y000759D02*
X007015Y007759D01*
X007017Y007803D01*
X007023Y007846D01*
X007032Y007888D01*
X007045Y007930D01*
X007062Y007970D01*
X007082Y008009D01*
X007105Y008046D01*
X007132Y008080D01*
X007161Y008113D01*
X007194Y008142D01*
X007228Y008169D01*
X007265Y008192D01*
X007304Y008212D01*
X007344Y008229D01*
X007386Y008242D01*
X007428Y008251D01*
X007471Y008257D01*
X007515Y008259D01*
X011489Y011469D02*
X011491Y011508D01*
X011497Y011547D01*
X011507Y011585D01*
X011520Y011622D01*
X011537Y011657D01*
X011557Y011691D01*
X011581Y011722D01*
X011608Y011751D01*
X011637Y011777D01*
X011669Y011800D01*
X011703Y011820D01*
X011739Y011836D01*
X011776Y011848D01*
X011815Y011857D01*
X011854Y011862D01*
X011893Y011863D01*
X011932Y011860D01*
X011971Y011853D01*
X012008Y011842D01*
X012045Y011828D01*
X012080Y011810D01*
X012113Y011789D01*
X012144Y011764D01*
X012172Y011737D01*
X012197Y011707D01*
X012219Y011674D01*
X012238Y011640D01*
X012253Y011604D01*
X012265Y011566D01*
X012273Y011528D01*
X012277Y011489D01*
X012277Y011449D01*
X012273Y011410D01*
X012265Y011372D01*
X012253Y011334D01*
X012238Y011298D01*
X012219Y011264D01*
X012197Y011231D01*
X012172Y011201D01*
X012144Y011174D01*
X012113Y011149D01*
X012080Y011128D01*
X012045Y011110D01*
X012008Y011096D01*
X011971Y011085D01*
X011932Y011078D01*
X011893Y011075D01*
X011854Y011076D01*
X011815Y011081D01*
X011776Y011090D01*
X011739Y011102D01*
X011703Y011118D01*
X011669Y011138D01*
X011637Y011161D01*
X011608Y011187D01*
X011581Y011216D01*
X011557Y011247D01*
X011537Y011281D01*
X011520Y011316D01*
X011507Y011353D01*
X011497Y011391D01*
X011491Y011430D01*
X011489Y011469D01*
X013708Y009026D02*
X013708Y016026D01*
X013710Y016070D01*
X013716Y016113D01*
X013725Y016155D01*
X013738Y016197D01*
X013755Y016237D01*
X013775Y016276D01*
X013798Y016313D01*
X013825Y016347D01*
X013854Y016380D01*
X013887Y016409D01*
X013921Y016436D01*
X013958Y016459D01*
X013997Y016479D01*
X014037Y016496D01*
X014079Y016509D01*
X014121Y016518D01*
X014164Y016524D01*
X014208Y016526D01*
X019208Y016526D02*
X019252Y016524D01*
X019295Y016518D01*
X019337Y016509D01*
X019379Y016496D01*
X019419Y016479D01*
X019458Y016459D01*
X019495Y016436D01*
X019529Y016409D01*
X019562Y016380D01*
X019591Y016347D01*
X019618Y016313D01*
X019641Y016276D01*
X019661Y016237D01*
X019678Y016197D01*
X019691Y016155D01*
X019700Y016113D01*
X019706Y016070D01*
X019708Y016026D01*
X019708Y009026D01*
X019706Y008982D01*
X019700Y008939D01*
X019691Y008897D01*
X019678Y008855D01*
X019661Y008815D01*
X019641Y008776D01*
X019618Y008739D01*
X019591Y008705D01*
X019562Y008672D01*
X019529Y008643D01*
X019495Y008616D01*
X019458Y008593D01*
X019419Y008573D01*
X019379Y008556D01*
X019337Y008543D01*
X019295Y008534D01*
X019252Y008528D01*
X019208Y008526D01*
X014208Y008526D01*
X014164Y008528D01*
X014121Y008534D01*
X014079Y008543D01*
X014037Y008556D01*
X013997Y008573D01*
X013958Y008593D01*
X013921Y008616D01*
X013887Y008643D01*
X013854Y008672D01*
X013825Y008705D01*
X013798Y008739D01*
X013775Y008776D01*
X013755Y008815D01*
X013738Y008855D01*
X013725Y008897D01*
X013716Y008939D01*
X013710Y008982D01*
X013708Y009026D01*
X013708Y007759D02*
X013708Y000759D01*
X013710Y000715D01*
X013716Y000672D01*
X013725Y000630D01*
X013738Y000588D01*
X013755Y000548D01*
X013775Y000509D01*
X013798Y000472D01*
X013825Y000438D01*
X013854Y000405D01*
X013887Y000376D01*
X013921Y000349D01*
X013958Y000326D01*
X013997Y000306D01*
X014037Y000289D01*
X014079Y000276D01*
X014121Y000267D01*
X014164Y000261D01*
X014208Y000259D01*
X019208Y000259D01*
X019252Y000261D01*
X019295Y000267D01*
X019337Y000276D01*
X019379Y000289D01*
X019419Y000306D01*
X019458Y000326D01*
X019495Y000349D01*
X019529Y000376D01*
X019562Y000405D01*
X019591Y000438D01*
X019618Y000472D01*
X019641Y000509D01*
X019661Y000548D01*
X019678Y000588D01*
X019691Y000630D01*
X019700Y000672D01*
X019706Y000715D01*
X019708Y000759D01*
X019708Y007759D01*
X019706Y007803D01*
X019700Y007846D01*
X019691Y007888D01*
X019678Y007930D01*
X019661Y007970D01*
X019641Y008009D01*
X019618Y008046D01*
X019591Y008080D01*
X019562Y008113D01*
X019529Y008142D01*
X019495Y008169D01*
X019458Y008192D01*
X019419Y008212D01*
X019379Y008229D01*
X019337Y008242D01*
X019295Y008251D01*
X019252Y008257D01*
X019208Y008259D01*
X014208Y008259D02*
X014164Y008257D01*
X014121Y008251D01*
X014079Y008242D01*
X014037Y008229D01*
X013997Y008212D01*
X013958Y008192D01*
X013921Y008169D01*
X013887Y008142D01*
X013854Y008113D01*
X013825Y008080D01*
X013798Y008046D01*
X013775Y008009D01*
X013755Y007970D01*
X013738Y007930D01*
X013725Y007888D01*
X013716Y007846D01*
X013710Y007803D01*
X013708Y007759D01*
X013015Y007759D02*
X013015Y000759D01*
X013013Y000715D01*
X013007Y000672D01*
X012998Y000630D01*
X012985Y000588D01*
X012968Y000548D01*
X012948Y000509D01*
X012925Y000472D01*
X012898Y000438D01*
X012869Y000405D01*
X012836Y000376D01*
X012802Y000349D01*
X012765Y000326D01*
X012726Y000306D01*
X012686Y000289D01*
X012644Y000276D01*
X012602Y000267D01*
X012559Y000261D01*
X012515Y000259D01*
X007515Y000259D01*
X007471Y000261D01*
X007428Y000267D01*
X007386Y000276D01*
X007344Y000289D01*
X007304Y000306D01*
X007265Y000326D01*
X007228Y000349D01*
X007194Y000376D01*
X007161Y000405D01*
X007132Y000438D01*
X007105Y000472D01*
X007082Y000509D01*
X007062Y000548D01*
X007045Y000588D01*
X007032Y000630D01*
X007023Y000672D01*
X007017Y000715D01*
X007015Y000759D01*
X013015Y007759D02*
X013013Y007803D01*
X013007Y007846D01*
X012998Y007888D01*
X012985Y007930D01*
X012968Y007970D01*
X012948Y008009D01*
X012925Y008046D01*
X012898Y008080D01*
X012869Y008113D01*
X012836Y008142D01*
X012802Y008169D01*
X012765Y008192D01*
X012726Y008212D01*
X012686Y008229D01*
X012644Y008242D01*
X012602Y008251D01*
X012559Y008257D01*
X012515Y008259D01*
D12*
X011631Y016452D03*
X011131Y016452D03*
X010631Y016452D03*
X010131Y016452D03*
X009631Y016452D03*
X009131Y016452D03*
X008631Y016452D03*
X008131Y016452D03*
X008131Y018872D03*
X008631Y018872D03*
X009131Y018872D03*
X009631Y018872D03*
X010131Y018872D03*
X010631Y018872D03*
X011131Y018872D03*
X011631Y018872D03*
D13*
X009427Y011175D03*
X008517Y011175D03*
X007607Y011175D03*
D14*
X008517Y013615D03*
M02*
