G75*
G70*
%OFA0B0*%
%FSLAX24Y24*%
%IPPOS*%
%LPD*%
%AMOC8*
5,1,8,0,0,1.08239X$1,22.5*
%
%ADD10C,0.0160*%
%ADD11C,0.0000*%
%ADD12C,0.0827*%
%ADD13R,0.0158X0.0493*%
%ADD14R,0.0493X0.0158*%
%ADD15C,0.0059*%
%ADD16C,0.0600*%
%ADD17R,0.0316X0.0394*%
%ADD18R,0.0394X0.0316*%
%ADD19R,0.0434X0.0394*%
%ADD20R,0.0473X0.0394*%
%ADD21R,0.0355X0.0512*%
%ADD22R,0.0670X0.0749*%
%ADD23R,0.0749X0.0355*%
%ADD24R,0.0827X0.0591*%
%ADD25R,0.0906X0.0591*%
%ADD26C,0.0355*%
%ADD27OC8,0.0640*%
%ADD28R,0.0500X0.0670*%
%ADD29R,0.0591X0.0512*%
%ADD30R,0.0512X0.0749*%
%ADD31R,0.0631X0.0827*%
D10*
X000180Y000180D02*
X000180Y019865D01*
X019865Y019865D01*
X019865Y000180D01*
X000180Y000180D01*
D11*
X000322Y000759D02*
X000322Y007759D01*
X000324Y007803D01*
X000330Y007846D01*
X000339Y007888D01*
X000352Y007930D01*
X000369Y007970D01*
X000389Y008009D01*
X000412Y008046D01*
X000439Y008080D01*
X000468Y008113D01*
X000501Y008142D01*
X000535Y008169D01*
X000572Y008192D01*
X000611Y008212D01*
X000651Y008229D01*
X000693Y008242D01*
X000735Y008251D01*
X000778Y008257D01*
X000822Y008259D01*
X000822Y008526D02*
X005822Y008526D01*
X005866Y008528D01*
X005909Y008534D01*
X005951Y008543D01*
X005993Y008556D01*
X006033Y008573D01*
X006072Y008593D01*
X006109Y008616D01*
X006143Y008643D01*
X006176Y008672D01*
X006205Y008705D01*
X006232Y008739D01*
X006255Y008776D01*
X006275Y008815D01*
X006292Y008855D01*
X006305Y008897D01*
X006314Y008939D01*
X006320Y008982D01*
X006322Y009026D01*
X006322Y016026D01*
X006320Y016070D01*
X006314Y016113D01*
X006305Y016155D01*
X006292Y016197D01*
X006275Y016237D01*
X006255Y016276D01*
X006232Y016313D01*
X006205Y016347D01*
X006176Y016380D01*
X006143Y016409D01*
X006109Y016436D01*
X006072Y016459D01*
X006033Y016479D01*
X005993Y016496D01*
X005951Y016509D01*
X005909Y016518D01*
X005866Y016524D01*
X005822Y016526D01*
X006843Y015347D02*
X006845Y015386D01*
X006851Y015425D01*
X006861Y015463D01*
X006874Y015500D01*
X006891Y015535D01*
X006911Y015569D01*
X006935Y015600D01*
X006962Y015629D01*
X006991Y015655D01*
X007023Y015678D01*
X007057Y015698D01*
X007093Y015714D01*
X007130Y015726D01*
X007169Y015735D01*
X007208Y015740D01*
X007247Y015741D01*
X007286Y015738D01*
X007325Y015731D01*
X007362Y015720D01*
X007399Y015706D01*
X007434Y015688D01*
X007467Y015667D01*
X007498Y015642D01*
X007526Y015615D01*
X007551Y015585D01*
X007573Y015552D01*
X007592Y015518D01*
X007607Y015482D01*
X007619Y015444D01*
X007627Y015406D01*
X007631Y015367D01*
X007631Y015327D01*
X007627Y015288D01*
X007619Y015250D01*
X007607Y015212D01*
X007592Y015176D01*
X007573Y015142D01*
X007551Y015109D01*
X007526Y015079D01*
X007498Y015052D01*
X007467Y015027D01*
X007434Y015006D01*
X007399Y014988D01*
X007362Y014974D01*
X007325Y014963D01*
X007286Y014956D01*
X007247Y014953D01*
X007208Y014954D01*
X007169Y014959D01*
X007130Y014968D01*
X007093Y014980D01*
X007057Y014996D01*
X007023Y015016D01*
X006991Y015039D01*
X006962Y015065D01*
X006935Y015094D01*
X006911Y015125D01*
X006891Y015159D01*
X006874Y015194D01*
X006861Y015231D01*
X006851Y015269D01*
X006845Y015308D01*
X006843Y015347D01*
X007564Y014694D02*
X007566Y014719D01*
X007572Y014743D01*
X007581Y014765D01*
X007594Y014786D01*
X007610Y014805D01*
X007629Y014821D01*
X007650Y014834D01*
X007672Y014843D01*
X007696Y014849D01*
X007721Y014851D01*
X007746Y014849D01*
X007770Y014843D01*
X007792Y014834D01*
X007813Y014821D01*
X007832Y014805D01*
X007848Y014786D01*
X007861Y014765D01*
X007870Y014743D01*
X007876Y014719D01*
X007878Y014694D01*
X007876Y014669D01*
X007870Y014645D01*
X007861Y014623D01*
X007848Y014602D01*
X007832Y014583D01*
X007813Y014567D01*
X007792Y014554D01*
X007770Y014545D01*
X007746Y014539D01*
X007721Y014537D01*
X007696Y014539D01*
X007672Y014545D01*
X007650Y014554D01*
X007629Y014567D01*
X007610Y014583D01*
X007594Y014602D01*
X007581Y014623D01*
X007572Y014645D01*
X007566Y014669D01*
X007564Y014694D01*
X007564Y017843D02*
X007566Y017868D01*
X007572Y017892D01*
X007581Y017914D01*
X007594Y017935D01*
X007610Y017954D01*
X007629Y017970D01*
X007650Y017983D01*
X007672Y017992D01*
X007696Y017998D01*
X007721Y018000D01*
X007746Y017998D01*
X007770Y017992D01*
X007792Y017983D01*
X007813Y017970D01*
X007832Y017954D01*
X007848Y017935D01*
X007861Y017914D01*
X007870Y017892D01*
X007876Y017868D01*
X007878Y017843D01*
X007876Y017818D01*
X007870Y017794D01*
X007861Y017772D01*
X007848Y017751D01*
X007832Y017732D01*
X007813Y017716D01*
X007792Y017703D01*
X007770Y017694D01*
X007746Y017688D01*
X007721Y017686D01*
X007696Y017688D01*
X007672Y017694D01*
X007650Y017703D01*
X007629Y017716D01*
X007610Y017732D01*
X007594Y017751D01*
X007581Y017772D01*
X007572Y017794D01*
X007566Y017818D01*
X007564Y017843D01*
X006745Y019481D02*
X013044Y019481D01*
X013044Y008556D01*
X006745Y008556D01*
X006745Y019481D01*
X000822Y016526D02*
X000778Y016524D01*
X000735Y016518D01*
X000693Y016509D01*
X000651Y016496D01*
X000611Y016479D01*
X000572Y016459D01*
X000535Y016436D01*
X000501Y016409D01*
X000468Y016380D01*
X000439Y016347D01*
X000412Y016313D01*
X000389Y016276D01*
X000369Y016237D01*
X000352Y016197D01*
X000339Y016155D01*
X000330Y016113D01*
X000324Y016070D01*
X000322Y016026D01*
X000322Y009026D01*
X000324Y008982D01*
X000330Y008939D01*
X000339Y008897D01*
X000352Y008855D01*
X000369Y008815D01*
X000389Y008776D01*
X000412Y008739D01*
X000439Y008705D01*
X000468Y008672D01*
X000501Y008643D01*
X000535Y008616D01*
X000572Y008593D01*
X000611Y008573D01*
X000651Y008556D01*
X000693Y008543D01*
X000735Y008534D01*
X000778Y008528D01*
X000822Y008526D01*
X005822Y008259D02*
X005866Y008257D01*
X005909Y008251D01*
X005951Y008242D01*
X005993Y008229D01*
X006033Y008212D01*
X006072Y008192D01*
X006109Y008169D01*
X006143Y008142D01*
X006176Y008113D01*
X006205Y008080D01*
X006232Y008046D01*
X006255Y008009D01*
X006275Y007970D01*
X006292Y007930D01*
X006305Y007888D01*
X006314Y007846D01*
X006320Y007803D01*
X006322Y007759D01*
X006322Y000759D01*
X006320Y000715D01*
X006314Y000672D01*
X006305Y000630D01*
X006292Y000588D01*
X006275Y000548D01*
X006255Y000509D01*
X006232Y000472D01*
X006205Y000438D01*
X006176Y000405D01*
X006143Y000376D01*
X006109Y000349D01*
X006072Y000326D01*
X006033Y000306D01*
X005993Y000289D01*
X005951Y000276D01*
X005909Y000267D01*
X005866Y000261D01*
X005822Y000259D01*
X000822Y000259D01*
X000778Y000261D01*
X000735Y000267D01*
X000693Y000276D01*
X000651Y000289D01*
X000611Y000306D01*
X000572Y000326D01*
X000535Y000349D01*
X000501Y000376D01*
X000468Y000405D01*
X000439Y000438D01*
X000412Y000472D01*
X000389Y000509D01*
X000369Y000548D01*
X000352Y000588D01*
X000339Y000630D01*
X000330Y000672D01*
X000324Y000715D01*
X000322Y000759D01*
X007015Y000759D02*
X007015Y007759D01*
X007017Y007803D01*
X007023Y007846D01*
X007032Y007888D01*
X007045Y007930D01*
X007062Y007970D01*
X007082Y008009D01*
X007105Y008046D01*
X007132Y008080D01*
X007161Y008113D01*
X007194Y008142D01*
X007228Y008169D01*
X007265Y008192D01*
X007304Y008212D01*
X007344Y008229D01*
X007386Y008242D01*
X007428Y008251D01*
X007471Y008257D01*
X007515Y008259D01*
X011489Y011469D02*
X011491Y011508D01*
X011497Y011547D01*
X011507Y011585D01*
X011520Y011622D01*
X011537Y011657D01*
X011557Y011691D01*
X011581Y011722D01*
X011608Y011751D01*
X011637Y011777D01*
X011669Y011800D01*
X011703Y011820D01*
X011739Y011836D01*
X011776Y011848D01*
X011815Y011857D01*
X011854Y011862D01*
X011893Y011863D01*
X011932Y011860D01*
X011971Y011853D01*
X012008Y011842D01*
X012045Y011828D01*
X012080Y011810D01*
X012113Y011789D01*
X012144Y011764D01*
X012172Y011737D01*
X012197Y011707D01*
X012219Y011674D01*
X012238Y011640D01*
X012253Y011604D01*
X012265Y011566D01*
X012273Y011528D01*
X012277Y011489D01*
X012277Y011449D01*
X012273Y011410D01*
X012265Y011372D01*
X012253Y011334D01*
X012238Y011298D01*
X012219Y011264D01*
X012197Y011231D01*
X012172Y011201D01*
X012144Y011174D01*
X012113Y011149D01*
X012080Y011128D01*
X012045Y011110D01*
X012008Y011096D01*
X011971Y011085D01*
X011932Y011078D01*
X011893Y011075D01*
X011854Y011076D01*
X011815Y011081D01*
X011776Y011090D01*
X011739Y011102D01*
X011703Y011118D01*
X011669Y011138D01*
X011637Y011161D01*
X011608Y011187D01*
X011581Y011216D01*
X011557Y011247D01*
X011537Y011281D01*
X011520Y011316D01*
X011507Y011353D01*
X011497Y011391D01*
X011491Y011430D01*
X011489Y011469D01*
X013708Y009026D02*
X013708Y016026D01*
X013710Y016070D01*
X013716Y016113D01*
X013725Y016155D01*
X013738Y016197D01*
X013755Y016237D01*
X013775Y016276D01*
X013798Y016313D01*
X013825Y016347D01*
X013854Y016380D01*
X013887Y016409D01*
X013921Y016436D01*
X013958Y016459D01*
X013997Y016479D01*
X014037Y016496D01*
X014079Y016509D01*
X014121Y016518D01*
X014164Y016524D01*
X014208Y016526D01*
X019208Y016526D02*
X019252Y016524D01*
X019295Y016518D01*
X019337Y016509D01*
X019379Y016496D01*
X019419Y016479D01*
X019458Y016459D01*
X019495Y016436D01*
X019529Y016409D01*
X019562Y016380D01*
X019591Y016347D01*
X019618Y016313D01*
X019641Y016276D01*
X019661Y016237D01*
X019678Y016197D01*
X019691Y016155D01*
X019700Y016113D01*
X019706Y016070D01*
X019708Y016026D01*
X019708Y009026D01*
X019706Y008982D01*
X019700Y008939D01*
X019691Y008897D01*
X019678Y008855D01*
X019661Y008815D01*
X019641Y008776D01*
X019618Y008739D01*
X019591Y008705D01*
X019562Y008672D01*
X019529Y008643D01*
X019495Y008616D01*
X019458Y008593D01*
X019419Y008573D01*
X019379Y008556D01*
X019337Y008543D01*
X019295Y008534D01*
X019252Y008528D01*
X019208Y008526D01*
X014208Y008526D01*
X014164Y008528D01*
X014121Y008534D01*
X014079Y008543D01*
X014037Y008556D01*
X013997Y008573D01*
X013958Y008593D01*
X013921Y008616D01*
X013887Y008643D01*
X013854Y008672D01*
X013825Y008705D01*
X013798Y008739D01*
X013775Y008776D01*
X013755Y008815D01*
X013738Y008855D01*
X013725Y008897D01*
X013716Y008939D01*
X013710Y008982D01*
X013708Y009026D01*
X013708Y007759D02*
X013708Y000759D01*
X013710Y000715D01*
X013716Y000672D01*
X013725Y000630D01*
X013738Y000588D01*
X013755Y000548D01*
X013775Y000509D01*
X013798Y000472D01*
X013825Y000438D01*
X013854Y000405D01*
X013887Y000376D01*
X013921Y000349D01*
X013958Y000326D01*
X013997Y000306D01*
X014037Y000289D01*
X014079Y000276D01*
X014121Y000267D01*
X014164Y000261D01*
X014208Y000259D01*
X019208Y000259D01*
X019252Y000261D01*
X019295Y000267D01*
X019337Y000276D01*
X019379Y000289D01*
X019419Y000306D01*
X019458Y000326D01*
X019495Y000349D01*
X019529Y000376D01*
X019562Y000405D01*
X019591Y000438D01*
X019618Y000472D01*
X019641Y000509D01*
X019661Y000548D01*
X019678Y000588D01*
X019691Y000630D01*
X019700Y000672D01*
X019706Y000715D01*
X019708Y000759D01*
X019708Y007759D01*
X019706Y007803D01*
X019700Y007846D01*
X019691Y007888D01*
X019678Y007930D01*
X019661Y007970D01*
X019641Y008009D01*
X019618Y008046D01*
X019591Y008080D01*
X019562Y008113D01*
X019529Y008142D01*
X019495Y008169D01*
X019458Y008192D01*
X019419Y008212D01*
X019379Y008229D01*
X019337Y008242D01*
X019295Y008251D01*
X019252Y008257D01*
X019208Y008259D01*
X014208Y008259D02*
X014164Y008257D01*
X014121Y008251D01*
X014079Y008242D01*
X014037Y008229D01*
X013997Y008212D01*
X013958Y008192D01*
X013921Y008169D01*
X013887Y008142D01*
X013854Y008113D01*
X013825Y008080D01*
X013798Y008046D01*
X013775Y008009D01*
X013755Y007970D01*
X013738Y007930D01*
X013725Y007888D01*
X013716Y007846D01*
X013710Y007803D01*
X013708Y007759D01*
X013015Y007759D02*
X013015Y000759D01*
X013013Y000715D01*
X013007Y000672D01*
X012998Y000630D01*
X012985Y000588D01*
X012968Y000548D01*
X012948Y000509D01*
X012925Y000472D01*
X012898Y000438D01*
X012869Y000405D01*
X012836Y000376D01*
X012802Y000349D01*
X012765Y000326D01*
X012726Y000306D01*
X012686Y000289D01*
X012644Y000276D01*
X012602Y000267D01*
X012559Y000261D01*
X012515Y000259D01*
X007515Y000259D01*
X007471Y000261D01*
X007428Y000267D01*
X007386Y000276D01*
X007344Y000289D01*
X007304Y000306D01*
X007265Y000326D01*
X007228Y000349D01*
X007194Y000376D01*
X007161Y000405D01*
X007132Y000438D01*
X007105Y000472D01*
X007082Y000509D01*
X007062Y000548D01*
X007045Y000588D01*
X007032Y000630D01*
X007023Y000672D01*
X007017Y000715D01*
X007015Y000759D01*
X013015Y007759D02*
X013013Y007803D01*
X013007Y007846D01*
X012998Y007888D01*
X012985Y007930D01*
X012968Y007970D01*
X012948Y008009D01*
X012925Y008046D01*
X012898Y008080D01*
X012869Y008113D01*
X012836Y008142D01*
X012802Y008169D01*
X012765Y008192D01*
X012726Y008212D01*
X012686Y008229D01*
X012644Y008242D01*
X012602Y008251D01*
X012559Y008257D01*
X012515Y008259D01*
D12*
X011883Y011469D03*
X007237Y015347D03*
D13*
X004412Y013471D03*
X004215Y013471D03*
X004019Y013471D03*
X003822Y013471D03*
X003625Y013471D03*
X003428Y013471D03*
X003231Y013471D03*
X003231Y011582D03*
X003428Y011582D03*
X003625Y011582D03*
X003822Y011582D03*
X004019Y011582D03*
X004215Y011582D03*
X004412Y011582D03*
X004412Y005204D03*
X004215Y005204D03*
X004019Y005204D03*
X003822Y005204D03*
X003625Y005204D03*
X003428Y005204D03*
X003231Y005204D03*
X003231Y003314D03*
X003428Y003314D03*
X003625Y003314D03*
X003822Y003314D03*
X004019Y003314D03*
X004215Y003314D03*
X004412Y003314D03*
X009924Y003314D03*
X010121Y003314D03*
X010318Y003314D03*
X010515Y003314D03*
X010711Y003314D03*
X010908Y003314D03*
X011105Y003314D03*
X011105Y005204D03*
X010908Y005204D03*
X010711Y005204D03*
X010515Y005204D03*
X010318Y005204D03*
X010121Y005204D03*
X009924Y005204D03*
X016617Y005204D03*
X016814Y005204D03*
X017011Y005204D03*
X017208Y005204D03*
X017404Y005204D03*
X017601Y005204D03*
X017798Y005204D03*
X017798Y003314D03*
X017601Y003314D03*
X017404Y003314D03*
X017208Y003314D03*
X017011Y003314D03*
X016814Y003314D03*
X016617Y003314D03*
X016617Y011582D03*
X016814Y011582D03*
X017011Y011582D03*
X017208Y011582D03*
X017404Y011582D03*
X017601Y011582D03*
X017798Y011582D03*
X017798Y013471D03*
X017601Y013471D03*
X017404Y013471D03*
X017208Y013471D03*
X017011Y013471D03*
X016814Y013471D03*
X016617Y013471D03*
D14*
X016263Y013117D03*
X016263Y012920D03*
X016263Y012723D03*
X016263Y012526D03*
X016263Y012330D03*
X016263Y012133D03*
X016263Y011936D03*
X018152Y011936D03*
X018152Y012133D03*
X018152Y012330D03*
X018152Y012526D03*
X018152Y012723D03*
X018152Y012920D03*
X018152Y013117D03*
X018152Y004849D03*
X018152Y004652D03*
X018152Y004456D03*
X018152Y004259D03*
X018152Y004062D03*
X018152Y003865D03*
X018152Y003668D03*
X016263Y003668D03*
X016263Y003865D03*
X016263Y004062D03*
X016263Y004259D03*
X016263Y004456D03*
X016263Y004652D03*
X016263Y004849D03*
X011460Y004849D03*
X011460Y004652D03*
X011460Y004456D03*
X011460Y004259D03*
X011460Y004062D03*
X011460Y003865D03*
X011460Y003668D03*
X009570Y003668D03*
X009570Y003865D03*
X009570Y004062D03*
X009570Y004259D03*
X009570Y004456D03*
X009570Y004652D03*
X009570Y004849D03*
X004767Y004849D03*
X004767Y004652D03*
X004767Y004456D03*
X004767Y004259D03*
X004767Y004062D03*
X004767Y003865D03*
X004767Y003668D03*
X002877Y003668D03*
X002877Y003865D03*
X002877Y004062D03*
X002877Y004259D03*
X002877Y004456D03*
X002877Y004652D03*
X002877Y004849D03*
X002877Y011936D03*
X002877Y012133D03*
X002877Y012330D03*
X002877Y012526D03*
X002877Y012723D03*
X002877Y012920D03*
X002877Y013117D03*
X004767Y013117D03*
X004767Y012920D03*
X004767Y012723D03*
X004767Y012526D03*
X004767Y012330D03*
X004767Y012133D03*
X004767Y011936D03*
D15*
X004412Y011936D02*
X003330Y011936D01*
X003326Y011961D01*
X003316Y011985D01*
X003300Y012005D01*
X003280Y012020D01*
X003256Y012030D01*
X003231Y012034D01*
X003231Y013117D01*
X004412Y013117D01*
X004412Y011936D01*
X004412Y011979D02*
X003318Y011979D01*
X003231Y012036D02*
X004412Y012036D01*
X004412Y012094D02*
X003231Y012094D01*
X003231Y012152D02*
X004412Y012152D01*
X004412Y012209D02*
X003231Y012209D01*
X003231Y012267D02*
X004412Y012267D01*
X004412Y012324D02*
X003231Y012324D01*
X003231Y012382D02*
X004412Y012382D01*
X004412Y012439D02*
X003231Y012439D01*
X003231Y012497D02*
X004412Y012497D01*
X004412Y012554D02*
X003231Y012554D01*
X003231Y012612D02*
X004412Y012612D01*
X004412Y012670D02*
X003231Y012670D01*
X003231Y012727D02*
X004412Y012727D01*
X004412Y012785D02*
X003231Y012785D01*
X003231Y012842D02*
X004412Y012842D01*
X004412Y012900D02*
X003231Y012900D01*
X003231Y012957D02*
X004412Y012957D01*
X004412Y013015D02*
X003231Y013015D01*
X003231Y013072D02*
X004412Y013072D01*
X004412Y004849D02*
X003231Y004849D01*
X003231Y003767D01*
X003256Y003763D01*
X003280Y003753D01*
X003300Y003737D01*
X003316Y003717D01*
X003326Y003693D01*
X003330Y003668D01*
X004412Y003668D01*
X004412Y004849D01*
X004412Y004842D02*
X003231Y004842D01*
X003231Y004784D02*
X004412Y004784D01*
X004412Y004727D02*
X003231Y004727D01*
X003231Y004669D02*
X004412Y004669D01*
X004412Y004612D02*
X003231Y004612D01*
X003231Y004554D02*
X004412Y004554D01*
X004412Y004497D02*
X003231Y004497D01*
X003231Y004439D02*
X004412Y004439D01*
X004412Y004382D02*
X003231Y004382D01*
X003231Y004324D02*
X004412Y004324D01*
X004412Y004266D02*
X003231Y004266D01*
X003231Y004209D02*
X004412Y004209D01*
X004412Y004151D02*
X003231Y004151D01*
X003231Y004094D02*
X004412Y004094D01*
X004412Y004036D02*
X003231Y004036D01*
X003231Y003979D02*
X004412Y003979D01*
X004412Y003921D02*
X003231Y003921D01*
X003231Y003864D02*
X004412Y003864D01*
X004412Y003806D02*
X003231Y003806D01*
X003285Y003748D02*
X004412Y003748D01*
X004412Y003691D02*
X003326Y003691D01*
X009924Y003767D02*
X009924Y004849D01*
X011105Y004849D01*
X011105Y003668D01*
X010023Y003668D01*
X010019Y003693D01*
X010009Y003717D01*
X009993Y003737D01*
X009973Y003753D01*
X009949Y003763D01*
X009924Y003767D01*
X009924Y003806D02*
X011105Y003806D01*
X011105Y003864D02*
X009924Y003864D01*
X009924Y003921D02*
X011105Y003921D01*
X011105Y003979D02*
X009924Y003979D01*
X009924Y004036D02*
X011105Y004036D01*
X011105Y004094D02*
X009924Y004094D01*
X009924Y004151D02*
X011105Y004151D01*
X011105Y004209D02*
X009924Y004209D01*
X009924Y004266D02*
X011105Y004266D01*
X011105Y004324D02*
X009924Y004324D01*
X009924Y004382D02*
X011105Y004382D01*
X011105Y004439D02*
X009924Y004439D01*
X009924Y004497D02*
X011105Y004497D01*
X011105Y004554D02*
X009924Y004554D01*
X009924Y004612D02*
X011105Y004612D01*
X011105Y004669D02*
X009924Y004669D01*
X009924Y004727D02*
X011105Y004727D01*
X011105Y004784D02*
X009924Y004784D01*
X009924Y004842D02*
X011105Y004842D01*
X011105Y003748D02*
X009978Y003748D01*
X010019Y003691D02*
X011105Y003691D01*
X016617Y003767D02*
X016617Y004849D01*
X017798Y004849D01*
X017798Y003668D01*
X016715Y003668D01*
X016712Y003693D01*
X016702Y003717D01*
X016686Y003737D01*
X016666Y003753D01*
X016642Y003763D01*
X016617Y003767D01*
X016617Y003806D02*
X017798Y003806D01*
X017798Y003864D02*
X016617Y003864D01*
X016617Y003921D02*
X017798Y003921D01*
X017798Y003979D02*
X016617Y003979D01*
X016617Y004036D02*
X017798Y004036D01*
X017798Y004094D02*
X016617Y004094D01*
X016617Y004151D02*
X017798Y004151D01*
X017798Y004209D02*
X016617Y004209D01*
X016617Y004266D02*
X017798Y004266D01*
X017798Y004324D02*
X016617Y004324D01*
X016617Y004382D02*
X017798Y004382D01*
X017798Y004439D02*
X016617Y004439D01*
X016617Y004497D02*
X017798Y004497D01*
X017798Y004554D02*
X016617Y004554D01*
X016617Y004612D02*
X017798Y004612D01*
X017798Y004669D02*
X016617Y004669D01*
X016617Y004727D02*
X017798Y004727D01*
X017798Y004784D02*
X016617Y004784D01*
X016617Y004842D02*
X017798Y004842D01*
X017798Y003748D02*
X016671Y003748D01*
X016712Y003691D02*
X017798Y003691D01*
X017798Y011936D02*
X016715Y011936D01*
X016712Y011961D01*
X016702Y011985D01*
X016686Y012005D01*
X016666Y012020D01*
X016642Y012030D01*
X016617Y012034D01*
X016617Y013117D01*
X017798Y013117D01*
X017798Y011936D01*
X017798Y011979D02*
X016704Y011979D01*
X016617Y012036D02*
X017798Y012036D01*
X017798Y012094D02*
X016617Y012094D01*
X016617Y012152D02*
X017798Y012152D01*
X017798Y012209D02*
X016617Y012209D01*
X016617Y012267D02*
X017798Y012267D01*
X017798Y012324D02*
X016617Y012324D01*
X016617Y012382D02*
X017798Y012382D01*
X017798Y012439D02*
X016617Y012439D01*
X016617Y012497D02*
X017798Y012497D01*
X017798Y012554D02*
X016617Y012554D01*
X016617Y012612D02*
X017798Y012612D01*
X017798Y012670D02*
X016617Y012670D01*
X016617Y012727D02*
X017798Y012727D01*
X017798Y012785D02*
X016617Y012785D01*
X016617Y012842D02*
X017798Y012842D01*
X017798Y012900D02*
X016617Y012900D01*
X016617Y012957D02*
X017798Y012957D01*
X017798Y013015D02*
X016617Y013015D01*
X016617Y013072D02*
X017798Y013072D01*
D16*
X019208Y013026D03*
X019208Y012026D03*
X019208Y011026D03*
X019208Y010026D03*
X019208Y009026D03*
X019208Y007759D03*
X019208Y006759D03*
X019208Y005759D03*
X019208Y004759D03*
X019208Y003759D03*
X019208Y002759D03*
X019208Y001759D03*
X019208Y000759D03*
X014208Y000759D03*
X014208Y001759D03*
X014208Y002759D03*
X014208Y003759D03*
X014208Y004759D03*
X014208Y005759D03*
X014208Y006759D03*
X014208Y007759D03*
X014208Y009026D03*
X014208Y010026D03*
X014208Y011026D03*
X014208Y012026D03*
X014208Y013026D03*
X014208Y014026D03*
X014208Y015026D03*
X014208Y016026D03*
X019208Y016026D03*
X019208Y015026D03*
X019208Y014026D03*
X012515Y007759D03*
X012515Y006759D03*
X012515Y005759D03*
X012515Y004759D03*
X012515Y003759D03*
X012515Y002759D03*
X012515Y001759D03*
X012515Y000759D03*
X007515Y000759D03*
X007515Y001759D03*
X007515Y002759D03*
X007515Y003759D03*
X007515Y004759D03*
X007515Y005759D03*
X007515Y006759D03*
X007515Y007759D03*
X005822Y007759D03*
X005822Y006759D03*
X005822Y005759D03*
X005822Y004759D03*
X005822Y003759D03*
X005822Y002759D03*
X005822Y001759D03*
X005822Y000759D03*
X000822Y000759D03*
X000822Y001759D03*
X000822Y002759D03*
X000822Y003759D03*
X000822Y004759D03*
X000822Y005759D03*
X000822Y006759D03*
X000822Y007759D03*
X000822Y009026D03*
X000822Y010026D03*
X000822Y011026D03*
X000822Y012026D03*
X000822Y013026D03*
X000822Y014026D03*
X000822Y015026D03*
X000822Y016026D03*
X005822Y016026D03*
X005822Y015026D03*
X005822Y014026D03*
X005822Y013026D03*
X005822Y012026D03*
X005822Y011026D03*
X005822Y010026D03*
X005822Y009026D03*
D17*
X004178Y009126D03*
X003666Y009126D03*
X003666Y010826D03*
X004178Y010826D03*
X002328Y014526D03*
X001816Y014526D03*
X004316Y014626D03*
X004828Y014626D03*
X004828Y006359D03*
X004316Y006359D03*
X002328Y006259D03*
X001816Y006259D03*
X003666Y002559D03*
X004178Y002559D03*
X004178Y000859D03*
X003666Y000859D03*
X008509Y006259D03*
X009021Y006259D03*
X011009Y006359D03*
X011521Y006359D03*
X015202Y006259D03*
X015713Y006259D03*
X017702Y006359D03*
X018213Y006359D03*
X017563Y009126D03*
X017052Y009126D03*
X017052Y010826D03*
X017563Y010826D03*
X015713Y014526D03*
X015202Y014526D03*
X017702Y014626D03*
X018213Y014626D03*
X017563Y002559D03*
X017052Y002559D03*
X017052Y000859D03*
X017563Y000859D03*
X010871Y000859D03*
X010359Y000859D03*
X010359Y002559D03*
X010871Y002559D03*
D18*
X011115Y001965D03*
X011115Y001453D03*
X011615Y002453D03*
X011615Y002965D03*
X011815Y005203D03*
X011815Y005715D03*
X009015Y007003D03*
X009015Y007515D03*
X005122Y005715D03*
X005122Y005203D03*
X004922Y002965D03*
X004922Y002453D03*
X004422Y001965D03*
X004422Y001453D03*
X002572Y001803D03*
X002572Y002315D03*
X001822Y002315D03*
X001822Y001803D03*
X002322Y007003D03*
X002322Y007515D03*
X004422Y009721D03*
X004422Y010232D03*
X004922Y010721D03*
X004922Y011232D03*
X005122Y013471D03*
X005122Y013982D03*
X002322Y015271D03*
X002322Y015782D03*
X002572Y010582D03*
X002572Y010071D03*
X001822Y010071D03*
X001822Y010582D03*
X008515Y002315D03*
X008515Y001803D03*
X009265Y001803D03*
X009265Y002315D03*
X015208Y002315D03*
X015208Y001803D03*
X015958Y001803D03*
X015958Y002315D03*
X017808Y001965D03*
X017808Y001453D03*
X018308Y002453D03*
X018308Y002965D03*
X018508Y005203D03*
X018508Y005715D03*
X015708Y007003D03*
X015708Y007515D03*
X017808Y009721D03*
X017808Y010232D03*
X018308Y010721D03*
X018308Y011232D03*
X018508Y013471D03*
X018508Y013982D03*
X015708Y015271D03*
X015708Y015782D03*
X015958Y010582D03*
X015958Y010071D03*
X015208Y010071D03*
X015208Y010582D03*
D19*
X016423Y007580D03*
X017092Y007580D03*
X010399Y007580D03*
X009730Y007580D03*
X003706Y007580D03*
X003037Y007580D03*
X003037Y015847D03*
X003706Y015847D03*
X016423Y015847D03*
X017092Y015847D03*
D20*
X016758Y014706D03*
X016758Y006438D03*
X010065Y006438D03*
X003372Y006438D03*
X003372Y014706D03*
D21*
X002176Y013226D03*
X001467Y013226D03*
X001467Y011826D03*
X002176Y011826D03*
X002176Y004959D03*
X001467Y004959D03*
X001467Y003559D03*
X002176Y003559D03*
X008160Y003559D03*
X008869Y003559D03*
X008869Y004959D03*
X008160Y004959D03*
X014853Y004959D03*
X015562Y004959D03*
X015562Y003559D03*
X014853Y003559D03*
X014853Y011826D03*
X015562Y011826D03*
X015562Y013226D03*
X014853Y013226D03*
D22*
X011698Y013080D03*
X015006Y009126D03*
X016109Y009126D03*
X016109Y000859D03*
X015006Y000859D03*
X009416Y000859D03*
X008313Y000859D03*
X002723Y000859D03*
X001621Y000859D03*
X001621Y009126D03*
X002723Y009126D03*
D23*
X011895Y014910D03*
X011895Y015343D03*
X011895Y015776D03*
X011895Y016210D03*
X011895Y016643D03*
X011895Y017076D03*
X011895Y017509D03*
X011895Y017942D03*
X011895Y018375D03*
D24*
X011658Y018946D03*
D25*
X007780Y019005D03*
X007780Y012587D03*
D26*
X007721Y014694D03*
X007721Y017843D03*
D27*
X009359Y010158D03*
X009359Y009158D03*
X010359Y009158D03*
X011359Y009158D03*
X012359Y009158D03*
X012359Y010158D03*
X011359Y010158D03*
X010359Y010158D03*
X008337Y010127D03*
X007337Y010127D03*
X007337Y009127D03*
X008337Y009127D03*
D28*
X009759Y011158D03*
X010359Y011158D03*
X010959Y011158D03*
D29*
X012641Y017867D03*
X012641Y019048D03*
D30*
X012641Y017065D03*
X012641Y015885D03*
D31*
X008566Y011341D03*
X007385Y011341D03*
M02*
