G75*
G70*
%OFA0B0*%
%FSLAX24Y24*%
%IPPOS*%
%LPD*%
%AMOC8*
5,1,8,0,0,1.08239X$1,22.5*
%
%ADD10C,0.0000*%
%ADD11C,0.0060*%
%ADD12C,0.0080*%
D10*
X001050Y001483D02*
X001050Y001561D01*
X001050Y040931D01*
X040420Y040931D01*
X040420Y001561D01*
X001050Y001561D01*
D11*
X015398Y006014D02*
X017702Y006014D01*
X017702Y010109D01*
X015398Y010109D01*
X015398Y006014D01*
X017137Y009725D02*
X017139Y009751D01*
X017145Y009777D01*
X017154Y009802D01*
X017167Y009825D01*
X017183Y009846D01*
X017202Y009864D01*
X017224Y009880D01*
X017247Y009892D01*
X017272Y009900D01*
X017298Y009905D01*
X017325Y009906D01*
X017351Y009903D01*
X017376Y009896D01*
X017401Y009886D01*
X017423Y009872D01*
X017444Y009855D01*
X017461Y009836D01*
X017476Y009814D01*
X017487Y009790D01*
X017495Y009764D01*
X017499Y009738D01*
X017499Y009712D01*
X017495Y009686D01*
X017487Y009660D01*
X017476Y009636D01*
X017461Y009614D01*
X017444Y009595D01*
X017423Y009578D01*
X017401Y009564D01*
X017376Y009554D01*
X017351Y009547D01*
X017325Y009544D01*
X017298Y009545D01*
X017272Y009550D01*
X017247Y009558D01*
X017224Y009570D01*
X017202Y009586D01*
X017183Y009604D01*
X017167Y009625D01*
X017154Y009648D01*
X017145Y009673D01*
X017139Y009699D01*
X017137Y009725D01*
X025250Y002961D02*
X025250Y002361D01*
X025252Y002344D01*
X025256Y002327D01*
X025263Y002311D01*
X025273Y002297D01*
X025286Y002284D01*
X025300Y002274D01*
X025316Y002267D01*
X025333Y002263D01*
X025350Y002261D01*
X026350Y002261D01*
X026367Y002263D01*
X026384Y002267D01*
X026400Y002274D01*
X026414Y002284D01*
X026427Y002297D01*
X026437Y002311D01*
X026444Y002327D01*
X026448Y002344D01*
X026450Y002361D01*
X026450Y002961D01*
X026448Y002978D01*
X026444Y002995D01*
X026437Y003011D01*
X026427Y003025D01*
X026414Y003038D01*
X026400Y003048D01*
X026384Y003055D01*
X026367Y003059D01*
X026350Y003061D01*
X025350Y003061D01*
X025333Y003059D01*
X025316Y003055D01*
X025300Y003048D01*
X025286Y003038D01*
X025273Y003025D01*
X025263Y003011D01*
X025256Y002995D01*
X025252Y002978D01*
X025250Y002961D01*
X025350Y021946D02*
X026350Y021946D01*
X026367Y021948D01*
X026384Y021952D01*
X026400Y021959D01*
X026414Y021969D01*
X026427Y021982D01*
X026437Y021996D01*
X026444Y022012D01*
X026448Y022029D01*
X026450Y022046D01*
X026450Y022646D01*
X026448Y022663D01*
X026444Y022680D01*
X026437Y022696D01*
X026427Y022710D01*
X026414Y022723D01*
X026400Y022733D01*
X026384Y022740D01*
X026367Y022744D01*
X026350Y022746D01*
X025350Y022746D01*
X025333Y022744D01*
X025316Y022740D01*
X025300Y022733D01*
X025286Y022723D01*
X025273Y022710D01*
X025263Y022696D01*
X025256Y022680D01*
X025252Y022663D01*
X025250Y022646D01*
X025250Y022046D01*
X025252Y022029D01*
X025256Y022012D01*
X025263Y021996D01*
X025273Y021982D01*
X025286Y021969D01*
X025300Y021959D01*
X025316Y021952D01*
X025333Y021948D01*
X025350Y021946D01*
X017702Y025699D02*
X017702Y029794D01*
X015398Y029794D01*
X015398Y025699D01*
X017702Y025699D01*
X017137Y029410D02*
X017139Y029436D01*
X017145Y029462D01*
X017154Y029487D01*
X017167Y029510D01*
X017183Y029531D01*
X017202Y029549D01*
X017224Y029565D01*
X017247Y029577D01*
X017272Y029585D01*
X017298Y029590D01*
X017325Y029591D01*
X017351Y029588D01*
X017376Y029581D01*
X017401Y029571D01*
X017423Y029557D01*
X017444Y029540D01*
X017461Y029521D01*
X017476Y029499D01*
X017487Y029475D01*
X017495Y029449D01*
X017499Y029423D01*
X017499Y029397D01*
X017495Y029371D01*
X017487Y029345D01*
X017476Y029321D01*
X017461Y029299D01*
X017444Y029280D01*
X017423Y029263D01*
X017401Y029249D01*
X017376Y029239D01*
X017351Y029232D01*
X017325Y029229D01*
X017298Y029230D01*
X017272Y029235D01*
X017247Y029243D01*
X017224Y029255D01*
X017202Y029271D01*
X017183Y029289D01*
X017167Y029310D01*
X017154Y029333D01*
X017145Y029358D01*
X017139Y029384D01*
X017137Y029410D01*
D12*
X016473Y027657D02*
X016437Y027657D01*
X016400Y027620D01*
X016363Y027657D01*
X016327Y027657D01*
X016290Y027620D01*
X016290Y027547D01*
X016327Y027510D01*
X016400Y027583D02*
X016400Y027620D01*
X016473Y027657D02*
X016510Y027620D01*
X016510Y027547D01*
X016473Y027510D01*
X016473Y027381D02*
X016510Y027344D01*
X016510Y027271D01*
X016473Y027234D01*
X016327Y027234D01*
X016290Y027271D01*
X016290Y027344D01*
X016327Y027381D01*
X016290Y027123D02*
X016290Y027050D01*
X016290Y027086D02*
X016510Y027086D01*
X016510Y027050D02*
X016510Y027123D01*
X025684Y023106D02*
X025684Y022886D01*
X025611Y022886D02*
X025758Y022886D01*
X025758Y023033D02*
X025684Y023106D01*
X025887Y023106D02*
X025960Y023106D01*
X025924Y023106D02*
X025924Y022923D01*
X025960Y022886D01*
X025997Y022886D01*
X026034Y022923D01*
X026163Y022923D02*
X026200Y022886D01*
X026273Y022886D01*
X026310Y022923D01*
X026273Y022996D02*
X026310Y023033D01*
X026310Y023070D01*
X026273Y023106D01*
X026200Y023106D01*
X026163Y023070D01*
X026200Y022996D02*
X026163Y022960D01*
X026163Y022923D01*
X026200Y022996D02*
X026273Y022996D01*
X016473Y007972D02*
X016327Y007972D01*
X016290Y007935D01*
X016290Y007862D01*
X016327Y007825D01*
X016473Y007972D01*
X016510Y007935D01*
X016510Y007862D01*
X016473Y007825D01*
X016327Y007825D01*
X016327Y007696D02*
X016290Y007659D01*
X016290Y007585D01*
X016327Y007549D01*
X016473Y007696D01*
X016327Y007696D01*
X016473Y007696D02*
X016510Y007659D01*
X016510Y007585D01*
X016473Y007549D01*
X016327Y007549D01*
X016290Y007419D02*
X016290Y007273D01*
X016290Y007346D02*
X016510Y007346D01*
X016437Y007273D01*
X016473Y007143D02*
X016510Y007106D01*
X016510Y007033D01*
X016473Y006996D01*
X016327Y006996D01*
X016290Y007033D01*
X016290Y007106D01*
X016327Y007143D01*
X016290Y006886D02*
X016290Y006812D01*
X016290Y006849D02*
X016510Y006849D01*
X016510Y006812D02*
X016510Y006886D01*
X025058Y003385D02*
X025058Y003238D01*
X025095Y003201D01*
X025168Y003201D01*
X025205Y003238D01*
X025058Y003385D01*
X025095Y003421D01*
X025168Y003421D01*
X025205Y003385D01*
X025205Y003238D01*
X025335Y003238D02*
X025371Y003201D01*
X025445Y003201D01*
X025481Y003238D01*
X025335Y003385D01*
X025335Y003238D01*
X025481Y003238D02*
X025481Y003385D01*
X025445Y003421D01*
X025371Y003421D01*
X025335Y003385D01*
X025611Y003201D02*
X025758Y003201D01*
X025684Y003201D02*
X025684Y003421D01*
X025758Y003348D01*
X025887Y003421D02*
X025960Y003421D01*
X025924Y003421D02*
X025924Y003238D01*
X025960Y003201D01*
X025997Y003201D01*
X026034Y003238D01*
X026163Y003238D02*
X026200Y003201D01*
X026273Y003201D01*
X026310Y003238D01*
X026273Y003311D02*
X026200Y003311D01*
X026163Y003275D01*
X026163Y003238D01*
X026273Y003311D02*
X026310Y003348D01*
X026310Y003385D01*
X026273Y003421D01*
X026200Y003421D01*
X026163Y003385D01*
M02*
