%
M48
M72
T01C0.0200
T02C0.0276
T03C0.0315
T04C0.0320
T05C0.0354
T06C0.0360
T07C0.0394
T08C0.0400
T09C0.0512
T10C0.0551
T11C0.0900
T12C0.1417
%
T01
X23050Y9511
X24250Y2911
X13650Y6911
X28001Y8998
X35670Y5041
X36670Y6081
X27370Y6731
X31920Y6951
X29190Y6721
X32590Y6841
X19940Y7781
X30250Y6511
X28894Y8638
X14220Y9721
X15950Y8621
X19410Y9201
X34050Y5161
X11010Y11601
X23050Y11661
X24000Y11661
X23050Y29196
X24250Y22596
X13650Y26596
X28001Y28683
X35670Y24726
X36670Y25766
X27370Y26416
X31920Y26636
X29190Y26406
X32590Y26526
X19940Y27466
X30250Y26196
X28894Y28323
X14220Y29406
X15950Y28306
X19410Y28886
X34050Y24846
X11010Y31286
X23050Y31346
X24000Y31346
T02
X26050Y8561
X25050Y8561
X11500Y12061
X10500Y12061
X12450Y7061
X12450Y8061
X12450Y9661
X12450Y10661
X21550Y12061
X20550Y12061
X6550Y15561
X6550Y16561
X14550Y15561
X14550Y16561
X22550Y15561
X22550Y16561
X30550Y15561
X30550Y16561
X37450Y11355
X36450Y11355
X35350Y11361
X34350Y11361
X12050Y5561
X12050Y4561
X9500Y9211
X7500Y9211
X38853Y12961
X39853Y12961
X38853Y18161
X39853Y18161
X25050Y7561
X26050Y7561
X26050Y28246
X25050Y28246
X11500Y31746
X10500Y31746
X12450Y26746
X12450Y27746
X12450Y29346
X12450Y30346
X21550Y31746
X20550Y31746
X6550Y35246
X6550Y36246
X14550Y35246
X14550Y36246
X22550Y35246
X22550Y36246
X30550Y35246
X30550Y36246
X37450Y31040
X36450Y31040
X35350Y31046
X34350Y31046
X12050Y25246
X12050Y24246
X9500Y28896
X7500Y28896
X38853Y32646
X39853Y32646
X38853Y37846
X39853Y37846
X25050Y27246
X26050Y27246
T03
X9550Y13061
X10550Y18061
X10550Y13061
X11550Y13061
X12550Y13061
X8550Y13061
X7550Y13061
X13550Y13061
X6550Y13061
X6550Y18061
X7550Y18061
X8550Y18061
X9550Y18061
X11550Y18061
X12550Y18061
X13550Y18061
X17550Y13061
X18550Y18061
X18550Y13061
X19550Y13061
X20550Y13061
X16550Y13061
X15550Y13061
X21550Y13061
X14550Y13061
X14550Y18061
X15550Y18061
X16550Y18061
X17550Y18061
X19550Y18061
X20550Y18061
X21550Y18061
X25550Y13061
X26550Y18061
X26550Y13061
X27550Y13061
X28550Y13061
X24550Y13061
X23550Y13061
X29550Y13061
X22550Y13061
X22550Y18061
X23550Y18061
X24550Y18061
X25550Y18061
X27550Y18061
X28550Y18061
X29550Y18061
X33550Y13061
X34550Y18061
X34550Y13061
X35550Y13061
X36550Y13061
X32550Y13061
X31550Y13061
X37550Y13061
X30550Y13061
X30550Y18061
X31550Y18061
X32550Y18061
X33550Y18061
X35550Y18061
X36550Y18061
X37550Y18061
X21550Y8061
X21550Y9061
X21550Y7061
X9550Y32746
X10550Y37746
X10550Y32746
X11550Y32746
X12550Y32746
X8550Y32746
X7550Y32746
X13550Y32746
X6550Y32746
X6550Y37746
X7550Y37746
X8550Y37746
X9550Y37746
X11550Y37746
X12550Y37746
X13550Y37746
X17550Y32746
X18550Y37746
X18550Y32746
X19550Y32746
X20550Y32746
X16550Y32746
X15550Y32746
X21550Y32746
X14550Y32746
X14550Y37746
X15550Y37746
X16550Y37746
X17550Y37746
X19550Y37746
X20550Y37746
X21550Y37746
X25550Y32746
X26550Y37746
X26550Y32746
X27550Y32746
X28550Y32746
X24550Y32746
X23550Y32746
X29550Y32746
X22550Y32746
X22550Y37746
X23550Y37746
X24550Y37746
X25550Y37746
X27550Y37746
X28550Y37746
X29550Y37746
X33550Y32746
X34550Y37746
X34550Y32746
X35550Y32746
X36550Y32746
X32550Y32746
X31550Y32746
X37550Y32746
X30550Y32746
X30550Y37746
X31550Y37746
X32550Y37746
X33550Y37746
X35550Y37746
X36550Y37746
X37550Y37746
X21550Y27746
X21550Y28746
X21550Y26746
T04
X33050Y11061
X32050Y11061
X31050Y11061
X30050Y11061
X29050Y11061
X28050Y11061
X27050Y11061
X26050Y11061
X25050Y11061
X24050Y11061
X23050Y11061
X22050Y11061
X21050Y11061
X20050Y11061
X19050Y11061
X18050Y11061
X17050Y11061
X16050Y11061
X15050Y11061
X14050Y11061
X14050Y5061
X15050Y5061
X16050Y5061
X17050Y5061
X18050Y5061
X19050Y5061
X20050Y5061
X21050Y5061
X22050Y5061
X23050Y5061
X24050Y5061
X25050Y5061
X26050Y5061
X27050Y5061
X28050Y5061
X29050Y5061
X30050Y5061
X31050Y5061
X32050Y5061
X33050Y5061
X37550Y20061
X36550Y20061
X33050Y30746
X32050Y30746
X31050Y30746
X30050Y30746
X29050Y30746
X28050Y30746
X27050Y30746
X26050Y30746
X25050Y30746
X24050Y30746
X23050Y30746
X22050Y30746
X21050Y30746
X20050Y30746
X19050Y30746
X18050Y30746
X17050Y30746
X16050Y30746
X15050Y30746
X14050Y30746
X14050Y24746
X15050Y24746
X16050Y24746
X17050Y24746
X18050Y24746
X19050Y24746
X20050Y24746
X21050Y24746
X22050Y24746
X23050Y24746
X24050Y24746
X25050Y24746
X26050Y24746
X27050Y24746
X28050Y24746
X29050Y24746
X30050Y24746
X31050Y24746
X32050Y24746
X33050Y24746
X37550Y39746
X36550Y39746
T05
X31050Y8061
X28050Y8061
X18550Y15061
X21550Y15061
X34950Y9861
X37950Y9861
X34950Y8861
X37950Y8861
X37000Y15811
X34000Y15811
X6550Y12061
X9550Y12061
X11450Y10311
X11450Y7311
X26550Y15061
X29550Y15061
X34550Y15061
X37550Y15061
X10550Y15061
X13550Y15061
X12550Y12061
X15550Y12061
X19550Y12061
X16550Y12061
X31050Y27746
X28050Y27746
X18550Y34746
X21550Y34746
X34950Y29546
X37950Y29546
X34950Y28546
X37950Y28546
X37000Y35496
X34000Y35496
X6550Y31746
X9550Y31746
X11450Y29996
X11450Y26996
X26550Y34746
X29550Y34746
X34550Y34746
X37550Y34746
X10550Y34746
X13550Y34746
X12550Y31746
X15550Y31746
X19550Y31746
X16550Y31746
T06
X8542Y5841
X7558Y5841
X7558Y5061
X8542Y5061
X8542Y25526
X7558Y25526
X7558Y24746
X8542Y24746
T07
X27353Y2561
X27353Y3561
X28353Y2561
X28353Y3561
X29353Y2561
X29353Y3561
X30353Y2561
X30353Y3561
X31353Y2561
X31353Y3561
X32353Y2561
X32353Y3561
X33353Y2561
X33353Y3561
X35353Y2561
X35353Y3561
X36353Y2561
X36353Y3561
X37353Y2561
X37353Y3561
X27353Y22246
X27353Y23246
X28353Y22246
X28353Y23246
X29353Y22246
X29353Y23246
X30353Y22246
X30353Y23246
X31353Y22246
X31353Y23246
X32353Y22246
X32353Y23246
X33353Y22246
X33353Y23246
X35353Y22246
X35353Y23246
X36353Y22246
X36353Y23246
X37353Y22246
X37353Y23246
T08
X35076Y7358
X37636Y7358
X35076Y5578
X37636Y5578
X8550Y20061
X9550Y20061
X10550Y20061
X11550Y20061
X16550Y20061
X17550Y20061
X18550Y20061
X19550Y20061
X24550Y20061
X25550Y20061
X26550Y20061
X27550Y20061
X32550Y20061
X33550Y20061
X34550Y20061
X35550Y20061
X15550Y14061
X16550Y14061
X17550Y14061
X18550Y14061
X19550Y14061
X20550Y14061
X2050Y15061
X2050Y16061
X2050Y17061
X2050Y18061
X2050Y10061
X2050Y11061
X2050Y12061
X2050Y13061
X39550Y7061
X39550Y8061
X39550Y10061
X39550Y11061
X15550Y2561
X14550Y2561
X13550Y2561
X19550Y2561
X18550Y2561
X17550Y2561
X23550Y2561
X22550Y2561
X21550Y2561
X4550Y15561
X4550Y16561
X4550Y17561
X4550Y10561
X4550Y11561
X4550Y12561
X23550Y14061
X24550Y14061
X25550Y14061
X26550Y14061
X27550Y14061
X28550Y14061
X31550Y14061
X32550Y14061
X33550Y14061
X34550Y14061
X35550Y14061
X36550Y14061
X7550Y14061
X8550Y14061
X9550Y14061
X10550Y14061
X11550Y14061
X12550Y14061
X22550Y20061
X21550Y20061
X30550Y20061
X29550Y20061
X14550Y20061
X13550Y20061
X5550Y2561
X6550Y2561
X7550Y2561
X8550Y2561
X9550Y2561
X10550Y2561
X39050Y16561
X39050Y15561
X39050Y14561
X24550Y12061
X25550Y12061
X24550Y19061
X25550Y19061
X26550Y19061
X27550Y19061
X35076Y27043
X37636Y27043
X35076Y25263
X37636Y25263
X8550Y39746
X9550Y39746
X10550Y39746
X11550Y39746
X16550Y39746
X17550Y39746
X18550Y39746
X19550Y39746
X24550Y39746
X25550Y39746
X26550Y39746
X27550Y39746
X32550Y39746
X33550Y39746
X34550Y39746
X35550Y39746
X15550Y33746
X16550Y33746
X17550Y33746
X18550Y33746
X19550Y33746
X20550Y33746
X2050Y34746
X2050Y35746
X2050Y36746
X2050Y37746
X2050Y29746
X2050Y30746
X2050Y31746
X2050Y32746
X39550Y26746
X39550Y27746
X39550Y29746
X39550Y30746
X15550Y22246
X14550Y22246
X13550Y22246
X19550Y22246
X18550Y22246
X17550Y22246
X23550Y22246
X22550Y22246
X21550Y22246
X4550Y35246
X4550Y36246
X4550Y37246
X4550Y30246
X4550Y31246
X4550Y32246
X23550Y33746
X24550Y33746
X25550Y33746
X26550Y33746
X27550Y33746
X28550Y33746
X31550Y33746
X32550Y33746
X33550Y33746
X34550Y33746
X35550Y33746
X36550Y33746
X7550Y33746
X8550Y33746
X9550Y33746
X10550Y33746
X11550Y33746
X12550Y33746
X22550Y39746
X21550Y39746
X30550Y39746
X29550Y39746
X14550Y39746
X13550Y39746
X5550Y22246
X6550Y22246
X7550Y22246
X8550Y22246
X9550Y22246
X10550Y22246
X39050Y36246
X39050Y35246
X39050Y34246
X24550Y31746
X25550Y31746
X24550Y38746
X25550Y38746
X26550Y38746
X27550Y38746
T09
X3150Y7561
X3150Y5593
X3150Y27246
X3150Y25278
T10
X1967Y6734
X1967Y8388
X4133Y8388
X4133Y6734
X1967Y26420
X1967Y28073
X4133Y28073
X4133Y26420
T11
X10420Y3991
X5680Y3991
X10420Y23676
X5680Y23676
T12
X39353Y3061
X2550Y3061
X2550Y20061
X39156Y20061
X39353Y22746
X2550Y22746
X2550Y39746
X39156Y39746
M30
